<?xml version="1.0" encoding="utf-8"?>
<!-- Generator: Adobe Illustrator 19.1.0, SVG Export Plug-In . SVG Version: 6.00 Build 0)  -->
<!DOCTYPE svg PUBLIC "-//W3C//DTD SVG 1.1//EN" "http://www.w3.org/Graphics/SVG/1.1/DTD/svg11.dtd">
<svg version="1.1" id="Layer_1" xmlns="http://www.w3.org/2000/svg" xmlns:xlink="http://www.w3.org/1999/xlink" x="0px" y="0px"
	 width="186.5px" height="39.4px" viewBox="0 0 186.5 39.4" style="enable-background:new 0 0 186.5 39.4;" xml:space="preserve">
<metadata><?xpacket begin="﻿" id="W5M0MpCehiHzreSzNTczkc9d"?>
<x:xmpmeta xmlns:x="adobe:ns:meta/" x:xmptk="Adobe XMP Core 5.6-c067 79.157747, 2015/03/30-23:40:42        ">
   <rdf:RDF xmlns:rdf="http://www.w3.org/1999/02/22-rdf-syntax-ns#">
      <rdf:Description rdf:about=""/>
   </rdf:RDF>
</x:xmpmeta>
                                                                                                    
                                                                                                    
                                                                                                    
                                                                                                    
                                                                                                    
                                                                                                    
                                                                                                    
                                                                                                    
                                                                                                    
                                                                                                    
                                                                                                    
                                                                                                    
                                                                                                    
                                                                                                    
                                                                                                    
                                                                                                    
                                                                                                    
                                                                                                    
                                                                                                    
                                                                                                    
                           
<?xpacket end="w"?></metadata>
<style type="text/css">
	.st0{fill:#FF7C34;}
</style>
<g>
	<path class="st0" d="M8.5,9.5l1,0.4c2,1.1,3.1,2.6,3.1,4.5v0.2c0,2.4-1,4.1-3.1,5l-0.3-0.1v0.1c-0.2,0.1-1.3,0.6-3.2,1.2H5.7
		c-0.2-0.1-0.3-0.3-0.3-0.5H5.2v0.2c0.2,0,0.3,0.1,0.3,0.2c-0.1,0.2-0.4,0.3-0.8,0.4l0.1,0.1v0.1l-0.1,0.1l-0.1-0.1
		c-1.4,0.8-2.1,1.6-2.1,2.3H2.3l0.1-0.5l-0.1-0.1v-0.9H2.3l-0.1,0.1c0,0.6-0.1,0.9-0.2,0.9v0.1h0.1l0.1-0.1v0.2l-0.1-0.1l-0.2,0.1
		l-0.5-0.2H1.3v0.1L2,23.8l-0.1,0.3H1.8l-0.1-0.2l-0.5,0.2l0.2,0.2c0.4,0,0.5,0.1,0.5,0.3h0.1l0.1-0.2l-0.1-0.3v-0.3h0.1
		c0,0.1,0.1,0.2,0.1,0.2l-0.1,0.9v0.4H2.1v-0.6H1.9v0.5l-0.1,0.2l0.1,0.4h0.2v-0.1h0.1l0.1,0.8h0.1v-0.6h0.1v0.1
		c0.8,1.8,2.1,2.8,3.8,2.8h0.2c1.7,0,2.9-0.9,3.8-2.7l0.4-1.5h2.2l0.1,0.1c0,2.2-1,3.9-2.9,5.1H10L10,29.7H9.9v0.1l0.1,0.1v0.1
		c-1.2,0.6-2.2,0.9-3.1,0.9l-0.4-0.1L6,30.7H6l-0.1-0.2l-0.1,0.1H5.7c-2.2-0.3-3.3-0.9-3.3-1.7v-2.4H2.2l0.1,1.2v0.1L2.2,28l0.1,0.1
		v0.3l-0.1,0.1l0.1,0.1v0.5l-0.1,0.1H2.1v-2.3H2L1.9,27L2,27.8V28l-0.1,0.9H1.8l-0.1-0.1v-1.2H1.5l0.1,1.1H1.5
		c-1-1.1-1.5-2.4-1.5-3.9v-0.3l0.1-0.1H0c0-1.5,0.6-2.8,1.8-3.8C1.9,20.6,2,20.7,2,21h0.1v-0.4h0.1v0.3l0.1,0.4l-0.1,0.1L2.3,22h0.1
		v-1.6H2.3l-0.1,0.1v-0.1c0.5-0.6,2.1-1.3,5-2.1h0.2v-0.1c1.9-0.8,2.9-1.9,2.9-3.4L11,15l0.1-0.1c-0.2-0.3-0.4-0.4-0.7-0.4l-0.2,0.1
		l-0.1-0.7c-0.6-1.7-1.8-2.6-3.5-2.6H6.3c-1,0-1.8,0.3-2.5,1.1l-0.4-0.1v0.1l-0.1,0.1v0.1l0.2,0.1c0,0.2,0,0.3-0.1,0.3l-0.7,1.8h-1
		l-0.5-0.1l-0.4,0.1H0.6l-0.1-0.1c0-0.6,0.1-0.8,0.2-0.8h0.1l0.1,0.1v-0.2c-0.1,0-0.2-0.1-0.2-0.1l0.2-0.6c1-2.4,2.9-3.6,5.6-3.6
		L8.5,9.5z M0.7,14.2v0.2h0.1v-0.2H0.7z M1.2,14.1v0.2h0.1L1.2,14.1L1.2,14.1z M1.3,27.5v0.1h0.1L1.3,27.5z M1.3,27.8v0.3h0.1
		L1.3,27.8L1.3,27.8z M1.4,26.1v0.1c0.1,0.1,0.2,0.3,0.2,0.8h0.1v-0.8L1.4,26.1z M2.5,11.3H2.1l-0.4,0.3v0.1L2,11.8l0.3-0.1
		l-0.1-0.1c0-0.1,0.2-0.1,0.5-0.1v-0.1L2.5,11.3z M2,22.6l-0.1,0.5H2l0.1,0.1L2,22.6L2,22.6z M1.9,25.9v0.5h0.2v-0.5H1.9z M3,11.4
		v0.1l0.5-0.1v-0.1H3z M3.5,11.7l0.1,0.2h0.1l-0.1-0.1v-0.1l0.1-0.1H3.5z M4,29.2v0.1h0.1L4,29.2L4,29.2z M4.4,17L4.4,17l-0.1,0.1
		l0.1,0.1v0.1l-0.1,0.1l-0.1-0.1v-0.3l0.1-0.1L4.4,17z M4.1,19.9l0.1,0.2v-0.2H4.1z M4.4,17.9H4.2v-0.4h0.1V17.9z M4.3,30.1
		L4.3,30.1l0.2,0.1v-0.1H4.3z M4.4,19.7l0.2,0.1v-0.1H4.4z M4.4,21.9L4.4,21.9l-0.1-0.2h0.1V21.9z M4.7,22.2L4.7,22.2l-0.1-0.1h0.1
		V22.2z M4.8,11L4.8,11l0.2-0.1v-0.2C5,10.7,4.9,10.8,4.8,11z M5.1,21.9L5.1,21.9L5,21.8h0.1V21.9z M5.9,30.3
		c0.1,0.2,0.2,0.3,0.3,0.3v-0.4L5.9,30.3z M6.8,19.3L6.8,19.3l0.4,0.1v-0.1H6.8z M7.2,15.6L7.2,15.6L7,15.5l0.1-0.2h0.1V15.6z
		 M7.2,16.5H7L7,16v-0.1h0.2V16.5z M7.2,18.5H7v0.1l0.4,0.1h0.1L7.2,18.5z M7.7,26.6L7.7,26.6l0.1,0.1l-0.1,0.1H7.6l-0.1-0.1v-0.1
		L7.7,26.6L7.7,26.6z M8.3,19.7L8.3,19.7l0.1,0.1h0.1L8.3,19.7z M8.3,18.4h0.1v-0.2L8.3,18.4z M10.4,30.5h-0.2v-0.1h0.2V30.5z
		 M10.6,16.9L10.6,16.9L10.6,17h0.6V17L10.6,16.9z M10.9,15.9L10.9,15.9L10.7,16l0.1,0.2l-0.1,0.2l0.2,0.2h0.3v-0.1L11,16.3l0.8-0.1
		v-0.1L10.9,15.9z M12,33.5v0.3l-0.1,0.1c-0.3,0-0.6-0.2-1-0.6v-0.1l0.1-0.1l0.3,0.1l0.2-0.1h0.1L12,33.5z M11.3,33.9L11.3,33.9
		l-0.1-0.1l0.1-0.1V33.9z M11.4,34.3l-0.1,0.1h-0.1l0.1-0.5h0.1V34.3z M11.3,13.3L11.3,13.3l-0.1,0.1h0.2L11.3,13.3z M11.3,14.8
		L11.3,14.8L11.3,14.8l0.1,0.2h0.2C11.6,15,11.5,14.9,11.3,14.8z M11.5,15.2L11.5,15.2l-0.2,0.1v0.1l0.5,0.2l0.3-0.1
		C12,15.3,11.8,15.2,11.5,15.2z M11.5,17L11.5,17l0.1,0.1V17H11.5z M12,26.4v0.1h0.2L12,26.4z M12.3,15.1h-0.2l0.1,0.1h0.2
		L12.3,15.1z M12.2,15.6l0.1,0.1v-0.1H12.2z"/>
	<path class="st0" d="M7.9,16.4H7.7l0.1-0.1L7.9,16.4L7.9,16.4z M8,23.2l-0.1-0.1L7.9,23H8l0.1,0.2L8,23.2L8,23.2z M9.2,15.3L8.3,15
		v-0.1h0.1L8.6,15l0.1-0.1h0.1c0.4,0,0.5,0.1,0.5,0.2L9.2,15.3L9.2,15.3z M11.7,19.4L11.7,19.4l-0.2-0.1v-0.1h0.2V19.4z M11.6,22.2
		L11.6,22.2l-0.1-0.1l0.1-0.1h0.1l0.1,0.1v0.1L11.6,22.2L11.6,22.2z M11.8,30.7l-0.1-0.1l0.1-0.1H12v0.1L11.8,30.7z M12,29.7
		l-0.1-0.1l0.2-0.1l0.1,0.1v0.1L12,29.7z M16.1,12c0.6-0.5,1.2-0.9,1.9-1.3c1.9-0.8,3.5-1.2,4.9-1.2V9.4h0.1v0.1
		c4,0,7.1,1.8,9.4,5.3V15c-0.1,0-0.2-0.1-0.2-0.2c-0.2,0.1-0.3,0.1-0.3,0.2c0.1,0,0.1,0.1,0.1,0.3h0.1v-0.1h0.3
		c0.4,0.3,0.7,1.3,1.1,2.8L33.5,18h-0.1c0-0.1-0.1,0.2-0.5,1c0,0,0.1,0.1,0.2,0.1l0.4-0.1v-0.1c-0.2,0-0.3-0.1-0.3-0.3l0.1-0.1h0.1
		c0.2,0,0.3,0.3,0.4,0.9v0.4c0,3.4-1.2,6.2-3.7,8.3H30c0-0.2,0-0.3-0.1-0.3l-0.1,0.1l0.1,0.1v0.4c-1.9,1.5-4,2.3-6.5,2.3h-0.5
		c-2.7,0-5.1-1-7.1-2.9l-0.1,0.1h-0.1l-0.1-0.1h-0.1l0.1-0.1v-0.1l-0.1-0.1v-0.1l-0.1,0.1h-0.1v-0.1l0.1-0.1v-0.1l-0.1-0.1L15,27.3
		h-0.2c0-0.1,0.1-0.1,0.2-0.1c-0.6-0.7-0.9-1.1-1-1.4l-0.5,0.1l-0.1-0.1l0.3-0.1v-0.2L13.2,24v-0.1h0.4v-0.1l-0.4-0.1l-0.1,0.1h-0.1
		l-0.2-0.5v-0.1l0.1-0.1V23c-0.2,0-0.4-0.9-0.5-2.6v-0.2l0.3-2.5h-0.1v-0.1c0.2,0,0.3-0.3,0.4-0.7c0.6-1.6,1.4-3,2.6-4.1l12.8,15.1
		L16.1,12z M13,12.8L13,12.8l-0.1-0.1l0.1-0.1h0.1l0.1,0.1v0.1L13,12.8L13,12.8z M13.3,26.1h-0.1v-0.1h0.1V26.1z M13.3,20.6v-0.1
		h-0.1L13.3,20.6L13.3,20.6z M13.8,20.9L13.8,20.9l-0.4-0.1l-0.2,0.1v0.1l0.4,0.1L13.8,20.9z M13.5,21.2L13.5,21.2l-0.1-0.1v0.1
		H13.5z M13.4,26.4L13.4,26.4l-0.1-0.1h0.2L13.4,26.4z M13.7,11.9L13.7,11.9l-0.2-0.1l0.1-0.1h0.1V11.9z M14.2,19.1L14.2,19.1
		L14.1,19l-0.5,0.1v0.1h0.2L14.2,19.1z M13.8,26.1L13.8,26.1l-0.1-0.1h0.1V26.1z M13.8,26.7L13.8,26.7l-0.1-0.1h0.1V26.7z
		 M13.8,27.3L13.8,27.3l-0.1-0.1h0.1V27.3z M14.1,20.6L14.1,20.6L14,20.4l0.1-0.1h-0.1l-0.1,0.2H14.1z M14.1,26.4L14.1,26.4L14,26.2
		h0.1V26.4z M14.1,27L14.1,27L14,26.8h0.1V27z M14.4,18.9L14.4,18.9l-0.1-0.1v0.1H14.4z M14.4,27.3L14.4,27.3l-0.1-0.1h0.1V27.3z
		 M14.7,27h-0.1l0.1-0.1V27z M14.7,27.6L14.7,27.6l-0.1-0.1h0.1V27.6z M15.3,15.8L15.3,15.8l-0.4-0.1v0.1H15L15.3,15.8z M15,22.8
		L15,22.8l-0.1-0.1v0.1H15z M15,27.9L15,27.9l-0.1-0.2H15V27.9z M15.1,17.1L15.1,17.1L15,17v0.1H15.1z M15.3,28.2L15.3,28.2L15.2,28
		h0.1V28.2z M15.6,28.5h-0.1v-0.1L15.6,28.5L15.6,28.5z M15.9,25.5l-0.1-0.2h-0.2v0.2H15.9z M15.9,32.5L15.9,32.5l0.1-0.2l0.1,0.1
		v0.1l-0.1,0.1H15.9z M17,20.4c0-0.1-0.2-0.2-0.6-0.2h-0.1L16,20.4l0.5,0.1L17,20.4z M16.5,26.8l-0.1-0.1h-0.2L16,26.8H16.5z
		 M16.2,28.5H16l0.2-0.1V28.5z M17.1,26v-0.1c0-0.1-0.2-0.2-0.4-0.2h-0.3v0.1C16.5,25.9,16.7,26,17.1,26L17.1,26z M17.7,14.5h-0.3
		l-0.2,0.2h0.1C17.6,14.7,17.7,14.6,17.7,14.5z M18,14.9L18,14.9l-0.2-0.1v0.1H18z M18.2,12.6L18.2,12.6l-0.3-0.1v0.1L18.2,12.6z
		 M18.2,29L18.2,29L18,28.9V29H18.2z M18.3,7.2L18.3,7.2l-0.1-0.1L18.3,7h0.1l0.1,0.1v0.1L18.3,7.2L18.3,7.2z M18.7,38.7L18.7,38.7
		l-0.1-0.1l0.1-0.1h0.1l0.1,0.1v0.1L18.7,38.7L18.7,38.7z M18.9,31.7L18.9,31.7l-0.1-0.1h0.1V31.7z M19.1,24.7L19.1,24.7L19,24.6
		v0.1H19.1z M19.3,11.3L19.3,11.3l-0.2-0.1v0.1H19.3z M19.5,12.2v-0.1l-0.2,0.1v0.1H19.5z M20.1,29.7L20.1,29.7L20,29.7v0.1H20.1z
		 M20.2,15.7L20.2,15.7l-0.1-0.1v0.1H20.2z M20.7,11.6L20.7,11.6l-0.4-0.1v0.1H20.7z M21.1,24.6L21.1,24.6l-0.4-0.2l-0.3,0.1
		l0.1,0.1H21.1z M20.7,36.3L20.7,36.3l-0.1-0.1l0.1-0.1h0.1v0.1L20.7,36.3z M21.4,15.4L21.4,15.4l-0.5-0.1l-0.1,0.1h0.1L21.4,15.4z
		 M22,16.3v-0.1h-0.7l-0.1,0.4L22,16.3z M21.8,15.3L21.8,15.3l-0.1-0.1v0.1H21.8z M22.5,22.6L22.5,22.6l-0.1-0.2h-0.1L22.5,22.6
		L22.5,22.6z M23.9,28v-0.1h-0.2c-0.4,0-0.6-0.1-0.8-0.2l-0.3,0.1v0.2l0.4,0.1h0.8L23.9,28L23.9,28z M23.1,30v-0.1h-0.4v0.1L23.1,30
		z M23.8,29.3c-0.2-0.3-0.4-0.4-0.8-0.4l-0.1,0.1c0.1,0.1,0.2,0.2,0.4,0.2H23.8z M23.1,0.4L23,0.3L23.4,0h0.2v0.1L23.1,0.4z
		 M23.5,21c0-0.1-0.1-0.2-0.3-0.2v0.1l0.1,0.1H23.5z M24.8,24.7H25v-0.1h-0.4l-1.3-0.1l-0.1,0.2l0.5,0.1L24.8,24.7z M23.7,20.1V20
		h-0.1v0.1H23.7z M24,1.2L23.8,1l0.1-0.2H24V1.2z M24,34.4h-0.1v-0.1L24,34.4L24,34.4z M24.2,0.7h-0.1V0.4h0.1V0.7z M24.2,1.8h-0.1
		V1.7L24.2,1.8L24.2,1.8z M24.2,17.5v-0.1l-0.1,0.1H24.2z M24.2,20.9v-0.1l-0.1,0.1H24.2z M24.9,29.6v-0.1l-0.4-0.1h-0.4v0.1
		L24.9,29.6z M24.4,20.7v-0.2h-0.2L24.4,20.7z M24.3,32.9L24.3,32.9l-0.1-0.1l0.1-0.1h0.1l0.1,0.1v0.1L24.3,32.9L24.3,32.9z
		 M24.6,27.2L24.6,27.2l-0.1-0.1v0.1H24.6z M24.6,34.3L24.6,34.3l-0.1-0.1l0.1-0.1h0.1l0.1,0.1v0.1L24.6,34.3L24.6,34.3z M25.3,10.6
		h-0.1c-0.4,0-0.6,0.1-0.6,0.2h0.1C25.1,10.8,25.3,10.7,25.3,10.6z M25.7,14.6v-0.1h-0.4c-0.4,0-0.6,0.1-0.6,0.2v0.1H25L25.7,14.6z
		 M24.9,17.4L24.9,17.4l-0.2-0.1v0.1H24.9z M24.9,32.8h-0.2v-0.1l0.1-0.2h0.1V32.8z M25.2,11.5L25.2,11.5L25.2,11.5h-0.4v0.1H25
		L25.2,11.5z M25.1,19.4L25.1,19.4L25,19.3v0.1H25.1z M25.3,25L25.3,25L25,24.9V25H25.3z M25.6,30L25.6,30l-0.3,0.2v0.1L25.6,30z
		 M25.6,19.7L25.6,19.7l-0.1-0.1v0.1H25.6z M25.6,20.9l0.1-0.2h-0.1l-0.1,0.1L25.6,20.9L25.6,20.9z M26.3,17.3L26.3,17.3l-0.1-0.1
		l-0.6,0.1v0.1h0.1L26.3,17.3z M25.6,18.6v-0.1h-0.1L25.6,18.6L25.6,18.6z M25.7,19.6v-0.1h-0.1v0.1H25.7z M26.2,27.6L26,27.4h-0.1
		L26.2,27.6L26.2,27.6z M26.4,14.5L26.4,14.5l-0.1-0.1v0.1H26.4z M26.5,15L26.5,15l-0.1-0.2V15H26.5z M26.8,24.1L26.8,24.1L26.4,24
		l0.1,0.1L26.8,24.1z M27,26.6L27,26.6c0-0.2-0.1-0.3-0.4-0.3C26.6,26.4,26.8,26.5,27,26.6z M27.4,18.9L27.4,18.9l-0.1-0.2l-0.1,0.1
		v0.1l0.1,0.1H27.4z M27.5,17.3v-0.1h-0.1v0.1H27.5z M27.6,29.2l0.1-0.3l-0.3,0.3H27.6z M27.7,22.6l-0.2-0.2h-0.1L27.7,22.6
		L27.7,22.6z M27.8,28.8L27.8,28.8l-0.1-0.2h-0.2C27.4,28.7,27.6,28.8,27.8,28.8z M28,38.4L28,38.4l-0.1-0.1l0.1-0.1H28l0.1,0.1v0.1
		L28,38.4L28,38.4z M29,37.2L29,37.2c0.2-0.5,0.3-0.7,0.4-0.7l0.1,0.1v0.1c-0.1,0-0.1,0.2-0.2,0.5H29z"/>
	<path class="st0" d="M33.2,14.2l1.4,1.3l-0.3,0.2l0.1,0.1h0.2l0.1-0.1c0.1,0,0.4,0.2,0.8,0.7v0.5c0,0.1-0.1,0.2-0.4,0.2v0.1
		c0.3,0,0.4,0.1,0.4,0.2v2.8c0,0.1-0.1,0.1-0.2,0.1l-0.1,0.1v0.1h0.3v0.1c0,0.1-0.2,0.2-0.6,0.2c0,0.2-0.1,0.3-0.3,0.3v0.1l0.8-0.3
		l0.1,0.1v0.7c0,0.1-0.1,0.2-0.3,0.2L35.2,22v0.1h0.4v0.1h-0.3c-0.3,0-0.5,0.1-0.6,0.4H35l0.6-0.1l0.1,0.1V24c0,2.3,1.3,3.9,3.8,4.6
		l1,0.1c2.3,0,3.8-1.2,4.6-3.6v-0.5c0.3,0,1,0.6,2.2,1.7c-0.4,1.3-1.1,2.3-2.3,3c-0.5,0.4-1.2,0.7-2.2,1.2l0.1,0.5h-0.1l-0.2,0.1
		v-0.1l0.1-0.1l-0.1-0.2l0.1-0.2l-0.2,0.1l-0.1-0.1h-0.1l-1.1,0.1c-0.1-0.1-0.2-0.2-0.5-0.2c-0.2,0-0.5,0.1-0.7,0.2h-0.1l-0.3-0.1
		l-0.6,0.1c-1.5-0.3-2.3-0.6-2.3-0.9l-0.1,0.1h-0.1c-1.2-0.7-2.1-1.6-2.6-2.7v-0.1L34,27c-0.3,0-0.5-0.7-0.7-2.1
		c0.9-0.2,1.4-0.4,1.4-0.6l-0.2-0.2h-0.6c0,0.2-0.1,0.4-0.3,0.5h-0.2l-0.2-0.1v-0.3c0-0.1,0.4-0.3,1-0.3v-0.2h-0.4l-0.6,0.2
		l-0.1-0.1v-0.1l0.1-0.3l-0.1-0.7v-0.5l0.4-0.4v-0.1c-0.3,0-0.4-0.1-0.4-0.2v-4.7l0.1-0.5l-0.1-0.5l0.1-0.1l-0.1-0.4v-0.9L33.2,14.2
		z M33.9,9.2h2.2l0.2,0.2v5.7c0,0.1-0.1,0.2-0.2,0.2v0.1c0.2,0,0.2,0,0.2,0.1v0.4L36.1,16l-0.6-0.7c-0.2,0-0.7-0.5-1.7-1.5V9.4
		L33.9,9.2z M34.1,23L34.1,23l0.2-0.2h-0.1L34.1,23z M34.4,22.3L34.4,22.3l0.2,0.1l0.2-0.2l-0.1-0.1h-0.1L34.4,22.3z M34.4,22.7
		L34.4,22.7l0.2,0.1v-0.1H34.4z M35.9,28.5L35.9,28.5l0.2,0.1v-0.1H35.9z M36.3,29.1L36.3,29.1l0.2,0.1v-0.1H36.3z M43.6,26.8h0.1
		V27h-0.1V26.8z M45.9,9.2h2.2l0.1,0.2v0.5l-0.1,0.1l0.1,0.1v1.6h-0.1L48,11.3h-0.1v0.5c0.3,0,0.4,0.1,0.4,0.2v0.9l-0.5,0.5h0.1
		l0.3-0.1l0.1,0.1v2.3c0,0.1-0.1,0.1-0.2,0.1V16c0.2,0,0.2,0,0.2,0.2v7.2c0,0.8,0,1.1-0.1,1.1l0.1,0.1v0.1c-0.1,0.9-0.3,1.4-0.5,1.4
		l-2-1.7l0.1-1.6v-0.7l0.2-0.3l-0.2-0.1v-3.1c0.2,0,0.3-0.1,0.3-0.1v-0.2c-0.2,0-0.3-0.1-0.3-0.2L46,18c-0.2-0.1-0.3-0.5-0.3-1.1
		l0.1-0.1v-0.1l-0.1-0.1l0.1-0.4v-5.3l0.1-0.1l-0.1-0.1V9.4L45.9,9.2z M46,9.8V10h0.1L46,9.8L46,9.8z M46.7,12h0.2v-0.1L46.7,12z
		 M46.7,16.6l0.2,0.1v-0.1H46.7z M46.7,21.6L46.7,21.6l0.2-0.2h-0.1L46.7,21.6z M46.7,23.3v0.2h0.2v-0.2H46.7z M47.2,14.9h0.4v-0.2
		h-0.1L47.2,14.9z M47.4,22.7L47.4,22.7l0.2,0.1l0.1-0.1v-0.1h-0.1L47.4,22.7z M47.5,18.2h0.1V18L47.5,18.2z M47.5,13.9h0.2v-0.2
		L47.5,13.9z M47.5,23.1v0.1h0.1L47.5,23.1L47.5,23.1z M47.6,10.1v0.1c0.2-0.1,0.3-0.1,0.3-0.2V9.9h-0.2L47.6,10.1z M47.6,20.9V21
		h0.1L47.6,20.9L47.6,20.9z M47.7,10.8v0.1l0.2,0.1l0.1-0.1v-0.2H47.7z M47.9,16.8V17H48v-0.1L47.9,16.8z M48,17.9V18h0.1L48,17.9
		L48,17.9z M48.5,16.6h0.1v0.1h-0.1V16.6z M48.5,22h0.1l-0.1,0.1V22z M48.5,22.8h0.1v0.1L48.5,22.8L48.5,22.8z M49.1,5.4L49.1,5.4
		l0.1,0.1h-0.1V5.4z M49.3,7.8L49.3,7.8l0.1,0.1h-0.1V7.8z M50.7,12.9L50.7,12.9l0.1,0.4l-0.2,0.2h-0.1V13L50.7,12.9z M50.6,13.6
		h0.2l0.1,0.4L50.7,14h-0.2V13.6z M50.9,9L50.9,9L51,9.5l-0.1,0.1l-0.2-0.1l0.2-0.2l-0.1-0.1V9.1L50.9,9L50.9,9z M50.7,11.9h0.2v0.1
		L50.7,11.9L50.7,11.9z M50.8,10.1l0.1,0.2v0.1h-0.1V10.1z"/>
	<path class="st0" d="M44.4,37.2L44.4,37.2l0.1,0.2l-0.1,0.1h-0.1l-0.1-0.1v-0.1L44.4,37.2L44.4,37.2z M45.6,22.5L45.6,22.5l0.1-0.1
		h0.1l0.2,0.2l0.4-0.1v0.1l0.1,0.1c0.2,0,0.2,0,0.2,0.1l-0.3,0.2L46,22.9L45.6,23c-0.3,0-0.6-0.1-0.7-0.4l0.2-0.2h0.4L45.6,22.5z
		 M57.9,9.6v1.3L57.8,11l0.1,0.2v1.2c0,0.1-0.2,0.2-0.6,0.3l-0.2-0.1l-0.3,0.3l1-0.1l0.1,0.2v0.6L57.8,14l0.1,0.3v4.4l-0.1,0.2
		l0.1,0.2v0.1l-0.1,0.1l0.1,0.1v0.4c0,0.1-0.1,0.1-0.2,0.1l0.2,0.3v1.5c0,0.1-0.1,0.2-0.3,0.2V22c0.2,0,0.3,0,0.3,0.1v0.6l-0.1,0.4
		l0.1,0.5V25l-0.1,0.2l-0.4-0.2V25l-0.2,0.1l-0.1,0.1l0.9,0.4v1.7c-0.4,0.3-0.5,0.5-0.5,0.8c0.4,0.1,0.5,0.3,0.5,0.4v0.1l-0.1,0.1
		h-0.1l-0.1-0.1c-0.1,0.1-0.3,0.2-0.6,0.3c0.3,0.2,0.5,0.4,0.5,0.6c0.3,0.1,0.5,0.2,0.5,0.3v0.5l-0.1,0.1h-1v-0.3l0.1-0.2h-0.1v0.1
		l-0.5-0.5l-0.2,0.2V30l0.2,0.5l-0.2,0.1h-0.4l-0.2-0.2l-0.9,0.2l-0.4-0.1l-0.1,0.1c-0.3-0.1-0.5-0.2-0.5-0.3h-0.1l-0.1,0.1
		c0,0.1,0,0.2-0.1,0.2h-0.4l-0.6-0.1l-0.6,0.1h-0.5l-0.1-0.1L51,30.6h-3.4l-0.1-0.1v-1.9l0.1-0.1h3.7c0.2,0.1,0.5,0.2,0.7,0.2
		l0.3-0.2h1.5l0.1,0.1c0,0.2-0.2,0.3-0.6,0.3l0.2,0.1l0.4-0.1c0,0.1,0.2,0.2,0.6,0.4l0.3-0.2V29l-0.2-0.2c0.5,0,0.9-0.1,1.1-0.4
		l-0.1-0.2v-0.2l0.4-0.5l-0.2-0.3c-0.1,0-0.2-0.1-0.2-0.2v-7l0.1-0.2v-0.2l-0.1-0.2v-5.5c0-0.1,0.1-0.2,0.3-0.2v-0.1L55.5,13v-3h0.2
		V9.8h-0.2V9.6l0.1-0.1h2.1L57.9,9.6z M47.8,29.3L47.8,29.3l0.2,0.1v-0.1H47.8z M50.3,30.2v0.2h0.6l0.2-0.2v-0.1L50.3,30.2z
		 M52.8,28.7L52.8,28.7c-0.1,0.1-0.2,0.3-0.4,0.6v0.1c0.3,0,0.4,0,0.6,0.2h0.1l-0.1-0.2l0.2-0.3v-0.2L52.8,28.7z M53.7,29.7v0.1
		l0.1,0.2h0.1l0.1-0.1l-0.1-0.2H53.7z M54.1,30.1L54.1,30.1l0.1,0.1v-0.1H54.1z M55.1,29v0.2h0.1l0.1-0.1L55.1,29z M55.7,10.7
		l0.1,0.3H56l-0.1-0.3H55.7z M55.7,23.2L55.7,23.2l0.2,0.1v-0.1H55.7z M56,26.2L56,26.2l-0.2-0.1v0.1l-0.1,0.1v0.1l0.8,0.1l0.2-0.1
		v-0.1L56.6,26L56,26.2z M55.9,28.7L55.9,28.7l0.1,0.1v-0.1H55.9z M56.1,23.1L56.1,23.1l0.2,0.1v-0.1H56.1z M56.3,23.2l-0.2,0.1
		l0.1,0.1l-0.1,0.5l0.6,0.1l0.5-0.1C57.1,23.4,56.9,23.2,56.3,23.2z M56.4,22L56.4,22l0.2,0.1V22H56.4z M56.4,29.1L56.4,29.1
		l0.2,0.1V29L56.4,29.1z M56.6,27.8V28H57v-0.1H56.6z M56.7,18.6L56.7,18.6l0.1-0.1v-0.1L56.7,18.6z M56.8,22L56.8,22l0.3,0.1V22
		H56.8z M56.9,22.8L56.9,22.8L56.8,23l0.1,0.1c0.2,0,0.3,0.1,0.3,0.2h0.2l0.1-0.1C57.5,23.1,57.3,23,56.9,22.8z M56.9,17.5v0.1
		l0.5,0.2l0.1-0.2L56.9,17.5z M57.1,13.3v0.2h0.1L57.1,13.3L57.1,13.3z M57.1,15.7v0.2h0.1L57.1,15.7z M57.1,19v0.1h0.1V19H57.1z
		 M57.5,24.4l-0.4,0.1c0,0.1,0.2,0.2,0.5,0.3c0-0.1,0.1-0.2,0.2-0.2C57.8,24.5,57.7,24.4,57.5,24.4z M57.2,27.5v0.1h0.2v-0.1H57.2z
		 M57.6,15.3L57.6,15.3l-0.1,0.1h0.2L57.6,15.3z M57.5,16.7v0.1h0.2L57.5,16.7z M57.6,9.9v0.2h0.1L57.6,9.9L57.6,9.9z"/>
	<path class="st0" d="M83.7,9.5h2.1l0.2,0.1v11.8l0.1,0.2l0.1-0.1h0.1l0.1,0.1v0.1c-0.1,0-0.2,0.2-0.4,0.6l0.1,0.1l-0.1,0.4v3.7
		l0.4-0.1v0.1c0,0.1-0.1,0.2-0.4,0.2v0.2H86c0,0.7-0.1,1.1-0.2,1.1l-0.2-0.1v0.1c0,0.2-0.1,0.3-0.3,0.3v0.2l0.6-0.2l0.1,0.1v2.3
		l-0.2,0.1h-1.6v0.7l-0.1,0.2L84,31.5v-0.8h-0.2l-0.1,0.2c0.1,0,0.1,0.1,0.1,0.2l-0.1,0.1v0.1l0.1,0.3h-0.1v0.1h0.1l0.1-0.1l0.1,0.3
		h-0.1l0.1,0.1v0.1l-0.2,0.3l0.1,0.7l-0.1,0.1v0.1l-0.3-0.2v-0.1h0.1c0-1.6-0.2-2.3-0.4-2.3l0.1-0.2L83.2,30V29
		c-0.3,0-0.4-0.1-0.4-0.2h0.1l0.2,0.1v-0.8c0-0.1,0.2-0.1,0.5-0.1l-0.2-0.2l-0.1,0.2L83,27.5v-0.1l0.1,0.1h0.1v-0.2
		c-0.2,0-0.3-0.1-0.3-0.1l0.1-0.4l-0.1-0.1h0.1c0.1,0,0.1,0.1,0.1,0.5h0.1v-2.3L83,25l0.1,0.8H83l0.1,0.1v0.4h-0.1l-0.1-0.4v-1.1
		h-1.2c0,0.1,0,0.2-0.2,0.2l-0.2-0.2h-8.4c-3.4,3.9-5.2,5.9-5.3,5.9h-1.6l-0.8-0.1L65,30.7l-0.1-0.1v-0.1l6.7-7.5l0.3,0.1v-0.1
		l-0.2-0.2c1.6-1.8,2.4-2.7,2.6-2.7c0.4-0.6,2.3-2.8,6-6.8c0.1,0,0.2-0.2,0.4-0.5c0.8-0.8,1.5-1.5,1.9-2.2L83.7,9.5z M68.9,27.8v0.2
		h0.1L68.9,27.8L68.9,27.8z M69.2,28.1L69.2,28.1l0.1,0.1v-0.1H69.2z M74.6,23.2l-0.1,0.3c0.6,0.3,1,0.5,1.4,0.5v-0.2
		c-0.3,0-0.6-0.2-0.9-0.5L74.6,23.2z M75,24.2v0.1l0.5-0.1v-0.1H75z M75.9,24.2v0.1h0.8l0.1-0.1l-0.1-0.1h-0.1L75.9,24.2z
		 M76.1,19.1v0.1h0.1L76.1,19.1L76.1,19.1z M76.2,22.1l0.5,0.1h0.3v-0.1L76.7,22h-0.4L76.2,22.1z M76.7,20.2v0.2h0.2l0.1-0.1V20
		h-0.2L76.7,20.2z M77.5,17.5v0.1h0.1L77.5,17.5L77.5,17.5z M77.6,21.3v0.1l0.2,0.2h0.1c0.1,0,0.2-0.1,0.2-0.4
		c-0.1,0-0.1-0.1-0.1-0.2h-0.2L77.6,21.3z M78.4,25L78.4,25l0.1,0.1h-0.1V25z M79.2,25l0.1,0.2v0.1h-0.1V25z M80.3,25h0.2v0.1
		L80.3,25z M80.3,26.1h0.2l-0.1,0.4h-0.2L80.3,26.1z M80.3,28.1h0.2v0.7h-0.2V28.1z M80.4,15.7L80.4,15.7v0.4h0.2v-0.3L80.4,15.7z
		 M80.4,25.1l0.1,0.2v0.1l-0.1,0.2h-0.1v-0.1L80.4,25.1z M80.3,30.4h0.2v0.1L80.3,30.4L80.3,30.4z M80.5,30.8L80.5,30.8l0.1,0.2
		L80.5,31h-0.1L80.3,31v-0.1L80.5,30.8L80.5,30.8z M80.3,31.4h0.2v0.3h-0.2V31.4z M80.3,31.9h0.2v0.5h-0.2V31.9z M80.4,17.4v0.4h0.1
		l0.1-0.2v-0.2H80.4z M80.4,21.4v0.2h0.1v-0.2H80.4z M80.4,33.7h0.1l-0.1,0.1V33.7z M80.4,36.3L80.4,36.3l0.2,0.2l-0.1,1h-0.1V36.3z
		 M80.4,37.9h0.1v0.2h-0.1V37.9z M80.5,19.2L80.5,19.2l0.1,0.5h0.1c0.3-0.1,0.4-0.3,0.4-0.5H81L80.7,19h-0.1L80.5,19.2z M80.6,18.3
		L80.6,18.3l0.3,0.2v-0.2L80.6,18.3z M82,24.9L82,24.9l0.2,0.1H82V24.9z M82.1,26.2l0.1,0.1h-0.1V26.2z M82.3,25.2L82.3,25.2
		l0.5,0.1v0.1l-0.5-0.1V25.2z M82.5,28.3L82.5,28.3l0.1,0.1h-0.1V28.3z M82.7,20.2v0.1h0.1L82.7,20.2L82.7,20.2z M83.7,29.6
		L83.7,29.6l0.1,0.1v-0.1H83.7z M84.5,29.4L84.5,29.4l-0.1-0.1l-0.2,0.1v0.2h0.2c0.3,0,0.4-0.1,0.5-0.2l-0.1-0.1h-0.1L84.5,29.4z
		 M84.6,16v0.2l0.2,0.2h0.1v-0.1l0.1-0.1L84.9,16L84.6,16z M85.1,29.4L85.1,29.4l0.3,0.1l0.2-0.1v-0.1h-0.1L85.1,29.4z M85.4,17.1
		v0.2l0.2-0.1v-0.1H85.4z M86.5,34.9L86.5,34.9c0.2,0,0.3,0.6,0.3,1.7h-0.2l-0.1-1.2l0.1-0.1v-0.1L86.5,34.9z M86.6,36.8h0.2v0.4
		h-0.2V36.8z M86.7,37.7h0.1l0.1,0.9h-0.1l0.1,0.1v0.5l-0.2,0.2l-0.1-0.1v-0.9L86.6,38L86.7,37.7z"/>
	<path class="st0" d="M100.3,9.5v0.5c0,0.1-0.1,0.2-0.4,0.2c0,0.2,0.1,0.4,0.4,0.7v3.5l-0.2,0.5l0.2,0.2v0.2l-0.2,0.1v0.1l0.1,0.1
		c0,0.1-0.1,0.1-0.2,0.1v0.1l0.3,0.4v1.8l-0.2,0.1l0.2,0.8c0,0.1-0.3,0.3-0.9,0.4c-0.5,0.3-0.8,0.5-1,0.5v0.2h0.2L99,20
		c0,0.1,0.2,0.2,0.6,0.4c0.3,0,0.4-0.1,0.4-0.2l-0.2-0.3v-0.1c0.4,0,0.6,0.1,0.6,0.2v1.6l-0.1,0.1c-0.2,0.1-0.3,0.1-0.3,0.2
		c0.3,0,0.4,0.1,0.4,0.2v0.2c0,0.1-0.2,0.2-0.4,0.3l0.4,0.4v5.3l-0.3,0.3v0.1l0.1,0.1c0.2,0,0.2,0,0.2,0.1v1.6l-0.2,0.2h-2.1
		l-0.1-0.2v-7.4l0.1-0.4l-0.1-0.2v-1.8h-0.1v0.1l-9.1,9.9h-2.8l-0.1-0.1l1.8-2c0.6-0.8,1-1.2,1.3-1.2v-0.1l-0.1-0.1l0.6-0.6h0.6
		c0.2,0,0.4-0.1,0.6-0.2l-0.1-0.2h-0.4l-0.2,0.2h-0.1v-0.1c2.2-2.4,3.4-3.8,3.7-3.9l0.8,0.2h0.3c0.4,0,0.7-0.1,0.8-0.4v-0.1
		c0-0.1-0.1-0.2-0.5-0.2l-1.1,0.2h-0.1v-0.1l1.5-1.7l-0.1-0.2v-0.1h0.2l0.1,0.1l0.1-0.1l-0.1-0.5h-0.2L95,19.8v-0.1l-0.1-0.1v-0.1
		l0.1-0.1l-0.1-0.1l-0.2,0.2h-0.1l-0.1-0.1c0-0.1,0.1-0.1,0.2-0.1L94.6,19l-0.2,0.1h-0.1v-0.2h0.2l-5.3-6.2l0.1-0.2v-0.1h-0.1
		l-0.1,0.1c-0.1,0-0.2-0.1-0.2-0.3c-0.4-0.4-1.2-1.2-2.4-2.5V9.4h2.5l8.7,10v-2.1h0.1c0,0.1,0.1,0.2,0.4,0.2c0.4,0.5,0.7,0.8,1,0.8
		h0.6c0-0.2,0.1-0.2,0.2-0.2c0-0.3-0.1-0.5-0.4-0.6h-1.2l0.1-0.2l-0.2-0.2L98,17.3h-0.1l-0.1-0.2v-1.7l0.1-0.2h0.2l1.3,0.2h0.1
		l0.4-0.1v-0.2c0-0.2-0.3-0.3-0.9-0.4c-0.5,0.1-0.7,0.3-0.7,0.4c-0.4-0.1-0.6-0.1-0.6-0.2V9.5l0.1-0.1l0.2,0.1h0.6
		c0-0.2,0.1-0.3,0.1-0.3h1.3L100.3,9.5z M87.6,9.9L87.6,9.9l0.1,0.2h0.1V9.9H87.6z M88.9,9.8v0.2h0.2V9.8H88.9z M89.4,29.5l-0.2,0.2
		h0.2l0.1-0.2H89.4z M89.5,12.1L89.5,12.1l0.2,0.1v-0.1H89.5z M91,21.3L91,21.3l-0.1-0.2H91V21.3z M91,21.9L91,21.9l-0.1-0.1H91
		V21.9z M91.3,21.6L91.3,21.6l-0.1-0.1h0.1V21.6z M91.6,21.2h-0.2v-0.1L91.6,21.2L91.6,21.2z M91.9,21.5h-0.2v-0.1L91.9,21.5
		L91.9,21.5z M91.9,20.3L91.9,20.3l-0.1-0.2h0.1V20.3z M91.9,21L91.9,21l-0.1-0.2h0.1V21z M92.3,19.9L92.3,19.9l-0.2-0.1L92.3,19.9
		L92.3,19.9z M92.3,21.2L92.3,21.2l-0.2-0.1L92.3,21.2L92.3,21.2z M92.2,19.4L92.2,19.4l-0.1-0.1h0.1V19.4z M92.2,20.7L92.2,20.7
		l-0.1-0.2h0.1V20.7z M92.2,21.9L92.2,21.9l-0.1-0.1h0.1V21.9z M92.5,19.1L92.5,19.1l-0.1-0.1h0.1V19.1z M92.5,19.7L92.5,19.7
		l-0.1-0.1h0.1V19.7z M92.5,20.3L92.5,20.3l-0.1-0.2h0.1V20.3z M92.5,21L92.5,21l-0.1-0.2h0.1V21z M92.5,21.6L92.5,21.6l-0.1-0.1
		h0.1V21.6z M92.9,19.4h-0.2v-0.1l0.1-0.1L92.9,19.4z M92.9,19.8L92.9,19.8l0.1,0.1L92.9,20h-0.1l-0.1-0.1v-0.1L92.9,19.8L92.9,19.8
		z M92.9,21.2L92.9,21.2l-0.2-0.1L92.9,21.2L92.9,21.2z M92.9,20.7L92.9,20.7l-0.1-0.2h0.1V20.7z M92.9,23.3v0.2l0.2,0.2v-0.2
		L92.9,23.3z M93.2,19.1H93V19L93.2,19.1L93.2,19.1z M93.2,19.7H93v-0.1h0.2V19.7z M93.2,20.3H93v-0.1L93.2,20.3L93.2,20.3z
		 M93.2,21.5H93v-0.1L93.2,21.5L93.2,21.5z M93.6,23l-0.4,0.2v0.1h0.4l0.1-0.1V23H93.6z M93.6,19.4h-0.2v-0.1l0.1-0.1L93.6,19.4z
		 M93.5,19.8L93.5,19.8l0.1,0.1L93.5,20h-0.1l-0.1-0.1v-0.1L93.5,19.8L93.5,19.8z M93.5,21.2h-0.1v-0.1L93.5,21.2L93.5,21.2z
		 M93.5,18.8L93.5,18.8l-0.1-0.2h0.1V18.8z M93.5,20.7L93.5,20.7l-0.1-0.2h0.1V20.7z M93.9,18.4L93.9,18.4l-0.2-0.1L93.9,18.4
		L93.9,18.4z M93.9,19.1h-0.2V19l0.1-0.1L93.9,19.1z M93.9,19.6L93.9,19.6l-0.1,0.2l-0.1-0.2v-0.1l0.1-0.1L93.9,19.6z M93.9,20.3
		h-0.2v-0.2h0.2V20.3z M93.8,21L93.8,21l-0.1-0.2h0.1V21z M94.1,19.2L94.1,19.2l0.1,0.1l-0.1,0.1L94,19.3v-0.1H94.1z M94.1,19.8
		L94.1,19.8L94,20H94v-0.1L94.1,19.8L94.1,19.8z M94,18.8v-0.2h0.2L94,18.8z M94.1,20.7L94.1,20.7L94,20.5h0.1V20.7z M94.5,19.6
		L94.5,19.6l-0.2,0.1v-0.1l0.1-0.1L94.5,19.6z M94.4,20.3L94.4,20.3l-0.1-0.2h0.1V20.3z M94.7,19.8L94.7,19.8L94.7,20h-0.1l-0.1-0.1
		L94.7,19.8L94.7,19.8z M94.8,23.1L94.8,23.1l0.2,0.1v-0.1H94.8z M95.4,21.4v0.2h0.7v-0.2L95.4,21.4z M97.2,19.6L97.2,19.6L97,19.5
		l-0.6,0.1l0.1,0.1l0.4-0.1v0.1l-0.1,0.1h0.3V19.6L97.2,19.6z M98.1,9.9L98.1,9.9l0.2,0.2h0.1L98.1,9.9z M98.1,20.7L98.1,20.7
		l0.1,0.1v-0.1H98.1z M98.9,10.2l0.1,0.2v0.1h-0.1l-0.2-0.1h-0.1l-0.1,0.1v0.1l0.1,0.1v0.1l-0.1,0.1l-0.4-0.1h-0.1v0.1l0.2,0.1
		l-0.2,0.3l1,0.1c0.4,0,0.6-0.2,0.6-0.6v-0.1c-0.2,0-0.3-0.2-0.3-0.5H98.9z M98.7,16.6L98.7,16.6l-0.2,0.1l0.2,0.2H99l0.1-0.2
		L98.7,16.6z M99.1,21.9L99.1,21.9l0.2,0.1v-0.1H99.1z M99.5,13.7h-0.3v0.1l0.3,0.1h0.1l0.1-0.1L99.5,13.7z M99.2,20.7L99.2,20.7
		l0.1,0.1v-0.1H99.2z M99.3,21.3L99.3,21.3l0.2,0.1v-0.1H99.3z M99.3,23.9L99.3,23.9l0.2,0.1v-0.1H99.3z M99.4,21.8L99.4,21.8
		l0.1,0.2v-0.2H99.4z M99.5,16L99.5,16l0.2,0.1V16H99.5z M99.5,22.6L99.5,22.6l0.1,0.1v-0.1H99.5z"/>
	<path class="st0" d="M118.1,9.5h2.1l0.2,0.1v11.8l0.1,0.2l0.1-0.1h0.1l0.1,0.1v0.1c-0.1,0-0.2,0.2-0.4,0.6l0.1,0.1l-0.1,0.4v3.7
		l0.4-0.1v0.1c0,0.1-0.1,0.2-0.4,0.2v0.2h0.1c0,0.7-0.1,1.1-0.2,1.1l-0.2-0.1v0.1c0,0.2-0.1,0.3-0.3,0.3v0.2l0.6-0.2l0.1,0.1v2.3
		l-0.2,0.1h-1.6v0.7l-0.1,0.2l-0.1-0.1v-0.8h-0.2l-0.1,0.2c0.1,0,0.1,0.1,0.1,0.2l-0.1,0.1v0.1l0.1,0.3h-0.1v0.1h0.1l0.1-0.1
		l0.1,0.3h-0.1l0.1,0.1v0.1l-0.2,0.3l0.1,0.7l-0.1,0.1v0.1l-0.3-0.2v-0.1h0.1c0-1.6-0.2-2.3-0.4-2.3l0.1-0.2l-0.1-0.4V29
		c-0.3,0-0.4-0.1-0.4-0.2h0.1l0.2,0.1v-0.8c0-0.1,0.2-0.1,0.5-0.1l-0.2-0.2l-0.1,0.2l-0.2-0.3v-0.1l0.1,0.1h0.1v-0.2
		c-0.2,0-0.3-0.1-0.3-0.1l0.1-0.4l-0.1-0.1h0.1c0.1,0,0.1,0.1,0.1,0.5h0.1v-2.3l-0.2,0.1l0.1,0.8h-0.1l0.1,0.1v0.4h-0.1l-0.1-0.4
		v-1.1H116c0,0.1,0,0.2-0.2,0.2l-0.2-0.2h-8.4c-3.4,3.9-5.2,5.9-5.3,5.9h-1.6l-0.8-0.1l-0.1,0.1l-0.1-0.1v-0.1l6.7-7.5l0.3,0.1v-0.1
		l-0.2-0.2c1.6-1.8,2.4-2.7,2.6-2.7c0.4-0.6,2.3-2.8,6-6.8c0.1,0,0.2-0.2,0.4-0.5c0.8-0.8,1.5-1.5,1.9-2.2L118.1,9.5z M103.3,27.8
		v0.2h0.1L103.3,27.8L103.3,27.8z M103.6,28.1L103.6,28.1l0.1,0.1v-0.1H103.6z M109.1,23.2l-0.1,0.3c0.6,0.3,1,0.5,1.4,0.5v-0.2
		c-0.3,0-0.6-0.2-0.9-0.5L109.1,23.2z M109.4,24.2v0.1l0.5-0.1v-0.1H109.4z M110.3,24.2v0.1h0.8l0.1-0.1l-0.1-0.1h-0.1L110.3,24.2z
		 M110.5,19.1v0.1h0.1L110.5,19.1L110.5,19.1z M110.6,22.1l0.5,0.1h0.3v-0.1l-0.2-0.2h-0.4L110.6,22.1z M111.1,20.2v0.2h0.2l0.1-0.1
		V20h-0.2L111.1,20.2z M111.9,17.5v0.1h0.1L111.9,17.5L111.9,17.5z M112,21.3v0.1l0.2,0.2h0.1c0.1,0,0.2-0.1,0.2-0.4
		c-0.1,0-0.1-0.1-0.1-0.2h-0.2L112,21.3z M112.9,25L112.9,25l0.1,0.1h-0.1V25z M113.6,25l0.1,0.2v0.1h-0.1V25z M114.7,25h0.2v0.1
		L114.7,25z M114.8,26.1h0.2l-0.1,0.4h-0.2L114.8,26.1z M114.7,28.1h0.2v0.7h-0.2V28.1z M114.9,15.7L114.9,15.7v0.4h0.2v-0.3
		L114.9,15.7z M114.9,25.1l0.1,0.2v0.1l-0.1,0.2h-0.1v-0.1L114.9,25.1z M114.8,30.4h0.2v0.1L114.8,30.4L114.8,30.4z M115,30.8
		L115,30.8L115,31L115,31h-0.1l-0.1-0.1v-0.1L115,30.8L115,30.8z M114.8,31.4h0.2v0.3h-0.2V31.4z M114.8,31.9h0.2v0.5h-0.2V31.9z
		 M114.9,17.4v0.4h0.1l0.1-0.2v-0.2H114.9z M114.9,21.4v0.2h0.1v-0.2H114.9z M114.9,33.7h0.1l-0.1,0.1V33.7z M114.9,36.3L114.9,36.3
		l0.2,0.2l-0.1,1h-0.1V36.3z M114.9,37.9h0.1v0.2h-0.1V37.9z M115,19.2L115,19.2l0.1,0.5h0.1c0.3-0.1,0.4-0.3,0.4-0.5h-0.1l-0.2-0.2
		h-0.1L115,19.2z M115,18.3L115,18.3l0.3,0.2v-0.2L115,18.3z M116.4,24.9L116.4,24.9l0.2,0.1h-0.2V24.9z M116.5,26.2l0.1,0.1h-0.1
		V26.2z M116.7,25.2L116.7,25.2l0.5,0.1v0.1l-0.5-0.1V25.2z M116.9,28.3L116.9,28.3l0.1,0.1h-0.1V28.3z M117.1,20.2v0.1h0.1
		L117.1,20.2L117.1,20.2z M118.1,29.6L118.1,29.6l0.1,0.1v-0.1H118.1z M119,29.4L119,29.4l-0.1-0.1l-0.2,0.1v0.2h0.2
		c0.3,0,0.4-0.1,0.5-0.2l-0.1-0.1h-0.1L119,29.4z M119.1,16v0.2l0.2,0.2h0.1v-0.1l0.1-0.1l-0.1-0.1L119.1,16z M119.5,29.4
		L119.5,29.4l0.3,0.1l0.2-0.1v-0.1h-0.1L119.5,29.4z M119.8,17.1v0.2l0.2-0.1v-0.1H119.8z M120.9,34.9L120.9,34.9
		c0.2,0,0.3,0.6,0.3,1.7h-0.2l-0.1-1.2l0.1-0.1v-0.1L120.9,34.9z M121.1,36.8h0.2v0.4h-0.2V36.8z M121.2,37.7h0.1l0.1,0.9h-0.1
		l0.1,0.1v0.5l-0.2,0.2l-0.1-0.1v-0.9l-0.1-0.5L121.2,37.7z"/>
	<path class="st0" d="M120,22.1L120,22.1l-0.1-0.2h0.1V22.1z M120,23.6L120,23.6l-0.1-0.1h0.1V23.6z M137.8,9.5V12l-0.3-0.2h-0.1
		l-0.1,0.2l0.2,0.3l0.1-0.1h0.1l0.1,0.1c0,0.1-0.1,0.2-0.3,0.2v0.1c0,0.2,0.1,0.4,0.3,0.6v4.4l0.1,0.3l-0.1,0.3v6.3h0.1l-0.1,0.2
		v0.2l0.1,0.3l-0.1,0.5h-0.1l-0.5-0.4h-0.1v0.6h0.1l0.1-0.1h0.1V26h-0.1V26l0.1,0.2l0.2-0.2h0.1l0.1,0.4v2l0.1,0.4l-0.1,0.2v0.9
		l-0.2,0.3v0.1l0.1-0.1l0.2,0.2v0.1l-0.2,0.2h-0.4l-0.1-0.4l-0.8,0.2l-0.3-0.1c0,0.2-0.3,0.3-1,0.3h-1.9c-0.1,0-0.2-0.1-0.2-0.2
		h-0.1v0.2c-2.1,0-3.5-0.1-4.2-0.2c-2.4-0.5-4.1-1.3-5-2.2c-1.2-0.9-2.1-2.3-2.8-4.3c0-0.1,0.2-0.2,0.5-0.3l-0.2-0.1h-0.4l-0.1,0.1
		l-0.1-0.1l0.1-0.1l-0.2-0.7v-0.1l0.1-0.1h-0.1c0-0.6-0.1-0.9-0.2-0.9l0.1-0.4l-0.1-0.5l0.1-0.2l-0.2-0.5l0.2-0.6v-0.1l-0.1-0.1
		c0.2-2.1,0.4-3.1,0.6-3.1l0.2,0.1h0.2l-0.4-0.4c0-0.2,0.1-0.4,0.3-0.7l0.7,0.3v-0.1l0.1-0.1l0.2,0.1l0.2-0.2h0.2v-0.2l-0.2-0.2
		v-0.1h0.2v-0.1c-0.4,0-0.8-0.1-1-0.2c0.2-0.6,0.7-1.3,1.4-2h0.4v-0.2h-0.1v-0.1c0.4-0.5,0.8-0.7,1.2-0.7v-0.1l-0.1-0.1
		c1.5-1.3,3.9-2,7.2-2h0.2l0.4,0.1l0.5-0.1h4.1l0.1,0.1V9.3l0.5,0.1l0.4-0.1L137.8,9.5z M120.4,22.4h-0.2v-0.1L120.4,22.4
		L120.4,22.4z M120.4,23.2h-0.2v-0.1L120.4,23.2L120.4,23.2z M120.8,24.3h-0.1v-0.1L120.8,24.3L120.8,24.3z M121.3,17.7l-0.6,0.4
		l0.6,0.2v-0.1l0.3,0.1h0.1C121.7,18,121.6,17.8,121.3,17.7z M121,16.7h-0.2v0.1c0.1,0.2,0.3,0.3,0.6,0.3h0.2v-0.1L121,16.7z
		 M121.1,19.7v0.2l0.2,0.1v-0.2L121.1,19.7z M121.4,25.9v-0.1h0.2L121.4,25.9z M122,22.8l-0.3,0.1c0.1,0.2,0.3,0.3,0.5,0.4v-0.1
		l0.4,0.1l0.1-0.1l0.2,0.1h0.1v-0.1C122.6,23,122.2,22.8,122,22.8z M122,13.9L122,13.9l0.2,0.1v-0.1H122z M122.3,24.6L122.3,24.6
		l0.2,0.2h0.3C122.7,24.7,122.6,24.7,122.3,24.6z M122.4,19.5v0.1h0.1L122.4,19.5z M122.8,16.4h-0.1l0.1,0.5h0.2
		c0-0.1,0.1-0.2,0.1-0.2L122.8,16.4z M122.7,18.1L122.7,18.1l-0.1,0.1v0.1l0.1,0.1l0.5-0.1v-0.1L122.7,18.1z M122.8,17.6L122.8,17.6
		l-0.1,0.1l0.2,0.1v-0.1L122.8,17.6z M122.9,21.6L122.9,21.6l0.1,0.1h0.1L122.9,21.6z M123.1,23.5L123.1,23.5l-0.2,0.1v0.1l1.1,0.2
		C123.6,23.7,123.3,23.5,123.1,23.5z M123,13.4L123,13.4l0.1,0.1v-0.1H123z M123.1,15.8H123l0.1,0.1h0.2L123.1,15.8z M123.1,13.6
		L123.1,13.6l0.2,0.1v-0.1H123.1z M123.1,19.8L123.1,19.8c0.1,0.3,0.3,0.4,0.6,0.4V20L123.1,19.8z M123.1,25.6v0.2h0.2L123.1,25.6z
		 M123.4,14.1h-0.1c0.1,0.2,0.2,0.3,0.5,0.3h0.2C123.8,14.3,123.6,14.1,123.4,14.1z M123.3,14.7L123.3,14.7l0.2,0.1v-0.1H123.3z
		 M123.8,16.7h-0.4v0.1l0.3,0.1h0.2l0.1-0.1L123.8,16.7z M123.5,24.3v0.1h0.2v-0.1L123.5,24.3z M123.8,23.4L123.8,23.4l-0.2,0.1
		l0.2,0.1h0.1l0.1-0.1L123.8,23.4z M123.8,24.7L123.8,24.7L123.8,24.7c0,0.3,0.2,0.4,0.6,0.6l0.2-0.1l0.6,0.1h0.1v-0.1L123.8,24.7z
		 M124,25.3l-0.2,0.2v0.1c0,0.2,0.5,0.4,1.4,0.5v-0.2c-0.5-0.1-0.7-0.2-0.7-0.6H124z M123.9,13.4v0.2h0.2L123.9,13.4z M124.2,17.2
		l-0.2,0.2l0.2,0.2h0.3l0.2-0.2v-0.1L124.2,17.2z M124.4,16c0,0.1-0.1,0.2-0.4,0.2l0.1,0.3c0.3,0,0.7,0.1,1.3,0.4l0.1-0.2v-0.1h-0.5
		C125.1,16.3,124.9,16.1,124.4,16z M124.2,23.9L124.2,23.9l0.1,0.2h0.1V24L124.2,23.9L124.2,23.9z M124.6,28.3h-0.2l0.2,0.2h0.1
		v-0.1L124.6,28.3z M124.6,13.4v0.2h0.1L124.6,13.4L124.6,13.4z M124.9,20.6v0.1l0.2,0.1h0.1C125.2,20.7,125.1,20.7,124.9,20.6z
		 M125.3,22.7l-0.4,0.1V23l0.6,0.2l0.3-0.1h0.3l0.1,0.1v-0.1C125.8,22.9,125.5,22.7,125.3,22.7z M125,15.9L125,15.9l0.2,0.1v-0.1
		H125z M125.3,27.9h-0.2v0.3l0.4,0.1h0.3l0.1-0.2l-0.2,0.1L125.3,27.9z M125.3,17.1l-0.1,0.2l0.1,0.1c0.3,0,0.4-0.1,0.5-0.2
		L125.3,17.1z M125.3,16L125.3,16l0.2,0.1V16H125.3z M125.7,15.2h-0.1v0.2h0.3v-0.1L125.7,15.2z M125.7,26.2h-0.1l0.1,0.2h0.2
		L125.7,26.2z M125.7,11.7h-0.2l0.2,0.2h0.1L125.7,11.7z M125.7,17.9L125.7,17.9l-0.1,0.2l0.2,0.2h0.6v-0.1
		C126.3,18,126.1,17.9,125.7,17.9z M126.2,19H126l-0.2,0.2c0,0.3,0.5,0.4,1.4,0.6v-0.1C126.8,19.3,126.5,19,126.2,19z M126.1,16.2
		L126.1,16.2l-0.2,0.1c0.1,0.1,0.2,0.2,0.5,0.2h0.4C126.8,16.4,126.5,16.3,126.1,16.2z M126.2,23.9H126V24c0,0.1,0.2,0.2,0.5,0.2
		h0.2l0.1-0.1C126.7,24,126.5,23.9,126.2,23.9z M126.1,24.9v0.2l0.4,0.1V25L126.1,24.9z M126.4,12.6L126.4,12.6l0.2,0.1v-0.1H126.4z
		 M126.4,23.2l0.2,0.1h0.1v-0.1H126.4z M126.4,15.8L126.4,15.8l0.2,0.1v-0.1H126.4z M126.6,26L126.6,26L126.6,26
		c-0.1,0.2,0.1,0.2,0.3,0.3l0.5-0.1v-0.1L126.6,26z M127.2,11.9l-0.4-0.1h-0.1v0.2h0.6L127.2,11.9L127.2,11.9z M126.8,24.1
		L126.8,24.1l0.3,0.1v-0.1H126.8z M127.4,25.5L127.4,25.5L127.4,25.5c-0.1,0.1,0.2,0.3,0.8,0.5h0.1C128.3,25.8,128,25.7,127.4,25.5z
		 M127.8,15L127.8,15l-0.1,0.1l0.2,0.1v-0.1l0.1-0.1L127.8,15z M129.4,15.8c-0.5-0.3-0.9-0.4-1.2-0.4l-0.4,0.1v0.3
		c0.3,0.4,0.7,0.5,1.3,0.5h0.2v-0.1l-0.2-0.1v-0.1l0.1-0.1l0.3,0.1l0.4-0.1l0.6,0.2h0.1C130.5,16.1,130.2,16,129.4,15.8z
		 M127.9,21.3L127.9,21.3l0.1,0.2h0.1L127.9,21.3z M127.9,10.1L127.9,10.1l0.3,0.1v-0.1H127.9z M128,10.8L128,10.8l0.1,0.1v-0.1H128
		z M128.3,9.8l0.1,0.2V9.8H128.3z M128.4,12.7L128.4,12.7l0.2,0.4h0.1C128.6,12.9,128.5,12.7,128.4,12.7z M128.5,9.7v0.2l0.1,0.1
		l0.9-0.1V9.8L128.5,9.7z M128.9,24.9L128.9,24.9L129,25h0.1L128.9,24.9z M129.2,13.9L129.2,13.9l-0.1,0.1h0.2L129.2,13.9z
		 M129.3,19.1L129.3,19.1l0.2,0.1v-0.1H129.3z M129.5,25.5L129.5,25.5l-0.1,0.1h0.2L129.5,25.5z M129.9,30.1c-0.1,0-0.2,0-0.2,0.2
		v0.1L129.9,30.1L129.9,30.1L129.9,30.1z M130.1,27.1v0.1h0.2L130.1,27.1z M130.2,22.3h0.2v-0.1l-0.1-0.1L130.2,22.3z M130.3,15.1
		v0.2h0.2v-0.2H130.3z M130.5,21.6h-0.2c0,0.1,0.1,0.2,0.4,0.2v-0.2L130.5,21.6z M130.4,29.8V30h0.2v-0.2H130.4z M130.5,11.8v0.2
		h0.1L130.5,11.8z M130.6,27.5v0.2h0.1L130.6,27.5L130.6,27.5z M130.9,12.7L130.9,12.7l-0.2,0.1l0.2,0.1h0.6
		C131.5,12.8,131.3,12.7,130.9,12.7z M131.3,29.7L131.3,29.7l0.2,0.1v-0.1H131.3z M131.5,14.2L131.5,14.2l0.2,0.1v-0.1H131.5z
		 M131.7,23.8l-0.2,0.1h0.2L131.7,23.8L131.7,23.8z M131.7,23.1L131.7,23.1c0,0.1,0.1,0.2,0.3,0.3h0.1
		C132,23.3,131.9,23.2,131.7,23.1z M131.9,25.2v0.2l0.4,0.1l0.1-0.1h0.1l0.2,0.1h0.1l0.1-0.1c-0.3-0.2-0.4-0.3-0.4-0.5L131.9,25.2z
		 M132.6,11L132.6,11l-0.2,0.2h0.6v-0.1L132.6,11z M132.4,26.6L132.4,26.6l-0.1,0.1h0.5v-0.1L132.4,26.6z M132.4,24.7v0.2l0.2-0.2
		H132.4z M132.4,26.8V27h0.1L132.4,26.8L132.4,26.8z M132.4,29.3L132.4,29.3l0.2,0.1v-0.1H132.4z M132.6,9.6l0.1,0.2h0.2l-0.1-0.1
		V9.7l0.1-0.1H132.6z M132.8,21.9l0.1,0.2h0.1v-0.2H132.8z M132.9,12.7L132.9,12.7l0.2,0.1v-0.1H132.9z M133,14L133,14l-0.1,0.2
		l0.5,0.1h0.1C133.5,14.1,133.3,14,133,14z M133,11.3L133,11.3l0.2,0.1v-0.1H133z M133.7,26.3L133.7,26.3l-0.2-0.1
		c-0.3,0-0.5,0.1-0.5,0.5l0.5,0.2h0.2v-0.1l-0.1-0.1V26.3L133.7,26.3z M133.1,11L133.1,11l0.2,0.1V11H133.1z M133.5,29.5L133.5,29.5
		l-0.1,0.1l0.3,0.9h0.1l0.1-0.2C133.7,29.7,133.6,29.5,133.5,29.5z M133.8,24.3c0,0.1-0.1,0.3-0.4,0.6h0.1l0.1,0.1h0.1
		c0.3,0,0.5-0.2,0.6-0.6L133.8,24.3z M133.5,17.8L133.5,17.8l0.2,0.1v-0.1H133.5z M133.5,28.7L133.5,28.7l0.2,0.2h0.2v-0.1
		L133.5,28.7z M133.7,10.4v0.2h0.1L133.7,10.4L133.7,10.4z M135.1,28.4L135.1,28.4L135.1,28.4c-0.3,0.3-0.5,0.6-0.6,1.1
		c-0.3,0-0.5,0.1-0.5,0.4v0.1l0.1,0.1c0.2,0,0.2,0,0.2,0.2h0.1l0.1-0.1c0-0.4,0.2-0.6,0.5-0.6l0.2,0.2l0.5-0.2v0.2h0.1l-0.1-0.5
		c-0.3-0.2-0.5-0.3-0.5-0.5l0.2-0.2L135.1,28.4z M134.2,26.8V27h0.1L134.2,26.8z M134.2,28.6L134.2,28.6l-0.1,0.2h0.2L134.2,28.6z
		 M134.2,10.2L134.2,10.2l0.1,0.1v-0.1H134.2z M134.6,25h-0.3l0.1,0.2h0.3L134.6,25z M134.5,28.3v0.1h0.1L134.5,28.3z M134.6,26
		L134.6,26l-0.1,0.9l0.2,0.2h0.1l0.2-0.2c0-0.2-0.1-0.3-0.3-0.3v-0.2c0.2,0,0.2-0.1,0.2-0.2L134.6,26z M134.7,25.3v0.2l0.1,0.1
		l-0.1,0.1v0.1l0.2,0.1h0.1v-0.1h-0.2v-0.2h0.2v-0.2H134.7z M134.8,30.2L134.8,30.2l-0.1,0.1l0.1,0.1h0.1l0.1-0.1L134.8,30.2z
		 M135.3,9.6l-0.4,0.1c0.1,0.4,0.1,0.6,0.2,0.6h0.1V10c0.5-0.1,0.7-0.2,0.7-0.3L135.3,9.6z M135,10.5v0.1h0.2v-0.1H135z M135.1,24.4
		l-0.2,0.2l0.3,0.2v-0.1l0.1-0.1v-0.2H135.1z M135.2,23.5L135.2,23.5l-0.1,0.1c0,0.3,0.1,0.4,0.2,0.5l0.3-0.2v-0.2L135.2,23.5z
		 M135.4,15.3L135.4,15.3c0,0.1,0.1,0.2,0.4,0.2h0.1C135.9,15.4,135.8,15.3,135.4,15.3z M135.4,21.4v0.2h0.1L135.4,21.4z
		 M135.6,27.5l-0.2,0.1v0.1l0.2,0.1h0.2l0.1-0.1v-0.2L135.6,27.5z M135.4,28.5h0.2v-0.2L135.4,28.5z M135.7,10.8L135.7,10.8l0.2,0.1
		v-0.1H135.7z M135.7,25.3L135.7,25.3l0.2,0.1v-0.1H135.7z M135.9,15L135.9,15l0.2,0.1V15H135.9z M135.9,29.2v0.2h0.1L135.9,29.2
		L135.9,29.2z M136.1,17.4H136l0.2,0.2h0.2v-0.1L136.1,17.4z M136.4,27.6l-0.2,0.4v0.2c0,0.1,0.3,0.2,0.8,0.2c0-0.3,0.1-0.4,0.2-0.4
		v-0.2C137.2,27.7,136.9,27.6,136.4,27.6z M136.2,24.6L136.2,24.6l0.1,0.2h0.1L136.2,24.6z M136.3,21.2L136.3,21.2l0.2,0.1v-0.1
		l-0.1-0.1L136.3,21.2z M136.8,29.4v0.2h0.4l0.1-0.2l-0.1-0.1L136.8,29.4z M137.2,22.4L137.2,22.4l-0.1,0.2l0.5,0.1v-0.2L137.2,22.4
		z M137.2,29.9l-0.2,0.1v0.1h0.1L137.2,29.9L137.2,29.9L137.2,29.9z M137.2,18.8L137.2,18.8l0.3,0.1v-0.1H137.2z M137.5,17.8
		L137.5,17.8l0.2,0.1v-0.1H137.5z"/>
	<path class="st0" d="M144.1,9.4h4.6l0.2,0.1V12l-0.2,0.2h-0.8c-0.3,0-0.4,0.1-0.5,0.3l0.3,0.1l1-0.3v0.1l0.1,0.1v11.1l-0.6,0.4
		c0,0.2,0.2,0.4,0.6,0.7v1.5l0.1,0.4l-0.1,0.1h0.1c0.1,0,0.2-0.1,0.2-0.2h0.1c0,0.1,0.1,0.2,0.2,0.2c0,0.4-0.2,0.6-0.6,0.6l0.1,0.4
		v0.2c-0.1,0-0.2,0.3-0.2,0.8v0.3c0.2,0,0.2,0,0.2,0.2v0.1l-0.1,0.3v0.1l0.1,0.1c0,0.2,0.1,0.3,0.2,0.3c0,0.1-0.1,0.2-0.2,0.2v0.4
		c0,0.1-0.1,0.2-0.4,0.2v-0.1l-0.1-0.1l-0.4,0.1h-0.5v0.1l0.1,0.3l-0.2,0.6h-0.1l-0.1-0.1l0.1-0.2l-0.2-0.2l0.3-0.4l-0.9-0.2
		l-0.2,0.2h-0.7c0,0.2-0.1,0.3-0.3,0.3v0.4l0.6,0.1v0.2l-0.1,0.1c0.2,0.1,0.4,0.2,0.5,0.4v0.2c-0.3,0.1-0.5,0.2-0.5,0.3
		c0.2,0,0.3,0.1,0.3,0.2v0.1h-0.2c0,0.1,0.1,0.1,0.2,0.1h0.1l-0.1,0.2v0.1c-0.3,0-0.4-0.1-0.4-0.3l-0.5-0.1h-0.1l-0.1,0.2v0.1
		l0.1,0.1l-0.1,0.2l-0.2-0.2v-0.1l0.1-0.1l-0.1-0.2h-0.1L145,33h-0.1v-0.1c-0.3,0-0.4-0.1-0.4-0.3l0.1-0.2v-0.1l-0.1-0.1
		c0-0.1,0.1-0.2,0.4-0.2v-0.7c0-0.1-0.1-0.1-0.2-0.1v-0.1c0.3,0,0.4-0.1,0.4-0.2l-0.4-0.1l-0.5,0.1c-0.1,0-0.2-0.1-0.2-0.2l-0.4,0.1
		l-0.7-0.2l-0.2,0.2h-0.8l-0.1-0.1l-0.1,0.1h-2.4l-0.2-0.2h-0.1v0.2h-0.5c0-0.3-0.2-0.5-0.5-0.5v0.1l-0.1,0.1l0.2,0.1l-0.2,0.2
		l-0.7-0.8v-0.1l0.1-0.1l0.6,0.5l-0.1-0.2l0.2-0.3l-0.7-0.3l-0.1,0.1h-0.1v-0.7l0.2-0.1c0.4,0,0.8,0,1,0.1l0.1-0.1h3.4l0.1,0.1
		l0.1-0.1h1.3c0.1,0,0.1,0.1,0.1,0.2h0.2c0-0.2,0.1-0.2,0.1-0.2l0.4,0.1c0.6-0.1,0.9-0.1,0.9-0.2c0.5,0,0.7,0.1,0.7,0.5h0.1l0.1-0.2
		l-0.1-0.1v-0.1h0.6l-0.1-0.1l0.1-0.5l-0.1-0.1v-0.1h0.2v0.2l0.1-0.2l-0.1-0.4h-0.1c0,0.1-0.1,0.3-0.3,0.3h-0.1l0.2-0.3v-0.6h-0.1
		c0,0.1-0.1,0.3-0.3,0.4v-0.1l0.1-0.2v-0.1h-0.1v-0.1c0.1-0.3,0.3-0.4,0.4-0.4v-1.5l0.1-0.1h0.1l0.1,0.1h0.1v-0.1
		c-0.3,0-0.4-0.1-0.4-0.2v-1.9l-0.1-0.2l0.1-0.2v-0.5h-0.1l0.1-0.2V21H146l-0.1-0.1l-0.1,0.1h-0.5v0.2l-0.4,0.9l-0.1-0.2V22l0.1-0.1
		h-0.1l0.3-0.8V21h-0.6l-0.1-0.1V21l-0.2,0.1l-0.1,0.1l-0.2-0.2h-0.5L143,21l-0.4,0.1h-0.5l-0.3-0.2l-0.3,0.2h-1.2l-0.4-0.1
		l-0.2,0.1H139l-0.5-0.1l-0.6,0.1h-0.3c-0.1-0.1-0.3-0.1-0.6-0.1v-1.6c0-0.3,0.1-0.4,0.2-0.5h0.6L138,19l0.2-0.2l0.5,0.1l0.7-0.1
		h0.3l0.7,0.1l0.3-0.1h0.1V19c-0.3,0-0.4,0.1-0.4,0.2v0.2c0,0.1,0.2,0.2,0.5,0.2h0.3c0-0.3,0.1-0.4,0.2-0.6V19l-0.1-0.1h0.1l0.1-0.1
		h0.2l0.6,0.3l0.4-0.3h0.2L143,19v0.1l-0.2-0.1c-0.2,0-0.4,0.1-0.5,0.3c0.3,0.3,0.5,0.6,0.5,0.8h0.3c0.2,0,0.4-0.1,0.6-0.3l0.4,0.1
		l0.5-0.1h0.3v-0.1l-0.1-0.1c-0.2,0-0.4-0.2-0.7-0.5h-0.2l-0.1,0.1l-0.2-0.2h-0.4v-0.2h0.5v-0.1h0.2v0.1h2.6v-0.2l-0.1-0.1l0.1-0.1
		v-0.3l-0.1-0.3l0.1-0.3v-0.2l-0.1-0.1c0.1-0.3,0.3-0.4,0.4-0.4v-0.1c-0.1,0-0.3-0.1-0.3-0.3l0.1-0.3v-2.6l0.1-0.1l-0.1-0.1v-1.7
		h-5.6v0.6h-0.1l-0.2-0.2l0.1-0.4c-0.1,0-0.2-0.1-0.2-0.2h-0.1c0,0.1,0,0.2-0.2,0.2h-3l-0.2-0.2V9.5l0.2-0.1h4.3l0.2,0.3
		c1.2-0.2,1.7-0.4,1.7-0.5L144.1,9.4z M137.6,28.7L137.6,28.7l-0.2,0.1c0,0.2,0.2,0.5,0.6,0.7h0.1C138.2,29.1,138,28.8,137.6,28.7z
		 M138,10.6v0.2h0.1c0.8-0.2,1.1-0.4,1.2-0.5v-0.1l-0.1-0.1C138.9,10.1,138.5,10.2,138,10.6z M138.2,20.4v0.2h0.1L138.2,20.4z
		 M138.4,9.9l-0.1,0.1h0.1L138.4,9.9L138.4,9.9z M138.6,28.9L138.6,28.9v0.4v0.1l-0.1,0.1c0.2,0,0.3,0.1,0.3,0.4l0.4-0.1
		C139.2,29.4,139,29.1,138.6,28.9z M139.4,19.2L139.4,19.2l0.1,0.3l0.1-0.1v-0.2H139.4z M139.7,29.7l-0.2,0.2v0.3l0.2-0.1l0.3,0.1
		C140,30,139.9,29.8,139.7,29.7z M139.8,28.9L139.8,28.9c0,0.1,0.1,0.2,0.3,0.3h0.1v-0.3H139.8z M140.7,7.5L140.7,7.5l-0.2,0.1
		l-0.1-0.3l0.1-0.1h0.1L140.7,7.5z M140.6,8.4L140.6,8.4l-0.2-0.1l0.2-0.2V8.4z M140.7,29.7L140.7,29.7l0.1,0.2h0.1v-0.2L140.7,29.7
		z M140.9,20v0.1h0.1L140.9,20L140.9,20z M140.9,30.2v0.2h0.1L140.9,30.2L140.9,30.2z M141.1,29.8L141.1,29.8l0.2,0.1v-0.1H141.1z
		 M141.6,28.6h-0.2l-0.2,0.2V29c0,0.1,0.1,0.1,0.3,0.2c0.2,0,0.2-0.1,0.2-0.1v-0.3L141.6,28.6z M141.4,29.5L141.4,29.5l0.1,0.1v-0.1
		H141.4z M142.1,29.6L142.1,29.6v0.3h0.2v-0.3H142.1z M142.9,14.8h-0.2v-0.1L142.9,14.8L142.9,14.8z M142.7,30.1v0.2h0.2v-0.2H142.7
		z M142.8,11.3v0.2h0.1L142.8,11.3L142.8,11.3z M143.3,19.3l-0.1-0.2h0.1V19.3z M143.2,29.7L143.2,29.7l0.1,0.1v-0.1H143.2z
		 M143.8,13.1v0.1l-0.2,0.2l-0.2-0.2l0.3-0.3L143.8,13.1z M143.4,29.8L143.4,29.8l0.2,0.1v-0.1H143.4z M144,6.2L144,6.2l-0.1,0.1
		L143.5,6l0.1-0.1h0.1C143.7,6,143.8,6.1,144,6.2z M143.6,8.7l-0.1-0.2h0.1V8.7z M143.7,13.8L143.7,13.8l-0.2-0.2v-0.1L143.7,13.8z
		 M143.8,20.7l-0.2,0.1v0.1l0.3-0.1L143.8,20.7z M144.1,23.6v0.3h-0.2l-0.2-0.3l0.2-0.1h0.1L144.1,23.6z M143.7,29.6v0.3h0.2v-0.2
		L143.7,29.6z M143.9,10.5v0.2h0.1L143.9,10.5L143.9,10.5z M144,19.5h-0.1v-0.1L144,19.5L144,19.5z M143.9,21.7L143.9,21.7l0.1,0.2
		v0.1h-0.1L143.9,21.7L143.9,21.7L143.9,21.7z M144.1,28.9L144.1,28.9l-0.2,0.1V29c0.2,0,0.3,0,0.3,0.1v0.2l-0.1,0.1h0.1v0.1
		l-0.1,0.1h0.1l0.1,0.1h0.1l0.1-0.1C144.5,29.1,144.3,28.9,144.1,28.9z M144.1,30.2v0.2h0.1L144.1,30.2L144.1,30.2z M144.4,5.4
		L144.4,5.4l-0.2-0.1l0.1-0.3h0.2L144.4,5.4z M144.7,9.8c-0.1,0-0.2,0-0.2,0.2l0.4-0.1V9.8H144.7z M144.6,22.1L144.6,22.1l-0.1-0.1
		h0.1V22.1z M144.7,5.9h-0.2V5.6h0.2V5.9z M144.9,22.3L144.9,22.3l-0.1,0.2v0.1l0.1,0.1v0.1h-0.1l-0.2-0.2v-0.1l0.1-0.1l-0.2-0.2
		h0.2H144.9L144.9,22.3L144.9,22.3z M144.7,29.4v0.1h0.1L144.7,29.4L144.7,29.4z M145.1,14.5h-0.2v-0.1L145.1,14.5L145.1,14.5z
		 M145,29.2v0.2h0.1L145,29.2L145,29.2z M145.2,26.9h-0.1v-0.2L145.2,26.9z M145.8,27.4v0.2l-0.2,0.1v-0.1h-0.1v0.1h0.1l-0.1,0.2
		h-0.2l-0.1-0.2l0.5-0.5L145.8,27.4z M145.6,24.8V25l-0.5-0.1v-0.1l0.1-0.1L145.6,24.8z M145.4,17.5h-0.2v-0.2h0.2V17.5z
		 M145.4,18.2h-0.2v-0.1L145.4,18.2L145.4,18.2z M145.3,28.2L145.3,28.2l-0.1-0.2h0.1V28.2z M145.5,15l-0.1,0.1h-0.1v-0.1L145.5,15
		L145.5,15L145.5,15z M145.5,26.6h-0.1v-0.2h0.1V26.6z M145.5,29L145.5,29L145.5,29v0.2h0.2V29L145.5,29z M145.8,17.9L145.8,17.9
		l-0.2-0.1v-0.1h0.2V17.9z M145.8,21.6L145.8,21.6l-0.1,0.1l-0.2-0.1v-0.1l0.1-0.1L145.8,21.6z M145.7,17L145.7,17l-0.1,0.2
		L145.7,17L145.7,17z M145.7,18.5L145.7,18.5l-0.1,0.2L145.7,18.5L145.7,18.5z M146.1,27.9l-0.2,0.2V28l-0.1-0.1l-0.1-0.1
		L146.1,27.9z M146.1,26.8L146.1,26.8l-0.2-0.2h0.1L146.1,26.8z M146.1,17.5h-0.2l0.2-0.2h0.1V17.5z M146.1,18.3l-0.2-0.1h0.2V18.3z
		 M146.1,21.1L146.1,21.1l-0.1,0.2H146l-0.1-0.1L146.1,21.1L146.1,21.1z M146.1,27.6h-0.2v-0.1l0.2-0.2V27.6z M146.1,22.1
		L146.1,22.1l-0.1-0.1h0.1V22.1z M146.2,26h-0.1v-0.1l0.1-0.2V26z M146.2,28.1L146.2,28.1l-0.1,0.2h-0.1v-0.1L146.2,28.1L146.2,28.1
		z M146.2,26.3L146.2,26.3l-0.1-0.2h0.1V26.3z M147.6,10.1l-0.2,0.4c-0.3,0-0.5,0.1-0.5,0.2c-0.4,0.2-0.7,0.4-0.7,0.5h0.7
		c0.3-0.3,0.8-0.5,1.4-0.8v-0.1l-0.3-0.1l-0.1,0.1h-0.1c-0.1,0-0.2-0.1-0.2-0.2H147.6z M146.6,26.4l-0.4,0.2v0.1h0.4V26.4
		L146.6,26.4L146.6,26.4z M146.6,17.2v0.1l0.4,0.2h0.3v-0.2L146.6,17.2z M147.2,31.5c-0.2,0-0.3,0-0.3,0.2l-0.1-0.2v-0.1l0.1-0.1
		l0.2,0.1L147.2,31.5l-0.2-0.3v-0.1h0.2V31.5z M146.9,20.9L146.9,20.9l0.1,0.1v-0.1H146.9z M147,23.9L147,23.9l0.1,0.1v-0.1H147z
		 M147,24.7L147,24.7l0.1,0.1l0.2-0.1H147z M147.2,26.1l0.1,0.3l0.1-0.1v-0.2H147.2z M147.3,16.6h0.2v-0.1l-0.1-0.1L147.3,16.6z
		 M147.5,20.2L147.5,20.2l-0.1,0.1v0.2h0.6v-0.2L147.5,20.2z M147.3,27.4v0.2h0.1L147.3,27.4L147.3,27.4z M147.3,28v0.2
		c0,0.2,0.1,0.3,0.2,0.3h0.1v-0.2C147.5,28.3,147.4,28.2,147.3,28L147.3,28z M147.4,25.4v0.2h0.2v-0.2H147.4z M147.7,14.7l-0.2,0.1
		v0.3h0.1c0.4-0.1,0.6-0.2,0.6-0.3L147.7,14.7z M147.9,26.1l-0.4,0.6l0.1,0.2l0.5-0.2c0-0.1,0.1-0.2,0.1-0.2v-0.2L147.9,26.1z
		 M147.6,27.9v0.2h0.1L147.6,27.9L147.6,27.9z M147.7,15.3L147.7,15.3l0.2,0.1v-0.1H147.7z M147.7,16.3v0.2h0.1L147.7,16.3
		L147.7,16.3z M147.9,17.5v0.2h0.1L147.9,17.5L147.9,17.5z M148.4,23.4h-0.1l0.1,0.1h0.2L148.4,23.4z M148.3,29.4v0.1h0.2
		L148.3,29.4z M148.4,18.5L148.4,18.5l0.2,0.1v-0.1H148.4z M148.5,19.2L148.5,19.2l0.1,0.2h0.1L148.5,19.2z M149.3,30.4L149.3,30.4
		l-0.1-0.2h0.1V30.4z M149.7,30.1L149.7,30.1l-0.1-0.2h0.1V30.1z"/>
	<path class="st0" d="M142.9,22.3L142.9,22.3l-0.2-0.1V22h0.2V22.3z M145.1,24.2L145.1,24.2l-0.1,0.2l-0.2-0.2v-0.1L145,24
		L145.1,24.2z M146.3,17.7L146.3,17.7l-0.2,0.3l-0.2-0.2v-0.1l0.2-0.2h0.1L146.3,17.7z M147.1,28h-0.2v-0.2h0.2V28z M147.4,20.8
		l-0.2,0.2l-0.1-0.2l0.1-0.1L147.4,20.8z M147.1,21L147.1,21l-0.1,0.2L147.1,21L147.1,21z M147.8,24L147.8,24l-0.1,0.1l-0.1-0.1
		v-0.2h0.1L147.8,24z M148.2,18.9L148.2,18.9l-0.2,0.1h-0.1l-0.2-0.2l0.2-0.2h0.2L148.2,18.9z M148.3,22.9L148.3,22.9l-0.1-0.1
		l0.1-0.1V22.9z M151.6,9.4c0.2,0,0.5,0.4,0.8,1.2l-0.2,0.3V11l0.2,0.2h0.1l0.1-0.1l0.5,1c0,0.1-0.1,0.2-0.2,0.2v0.1h-0.1l-0.1-0.1
		c-0.5,0.1-0.7,0.3-0.7,0.5l0.5,0.4c0-0.1,0.3-0.3,0.9-0.6l3.4,7.6c0.6,0.3,0.9,0.5,0.9,0.6c-0.1,0.2-0.2,0.3-0.4,0.3l0.9,2.4v0.1
		l-0.1,0.1h0.1c0.1,0,0.7,1.2,1.7,3.6h0.1l1.8-4.1l0.1,0.1l0.4-0.2c0-0.1-0.1-0.2-0.2-0.2h-0.1l1.6-3.6c0.1-0.5,0.4-0.9,0.8-1.1
		l-0.2-0.1c0-0.4,0.2-0.6,0.6-0.6l-0.2-0.2l0.2-0.6c0.4,0,0.6-0.1,0.6-0.2l-0.3-0.3l0.9-2h0.1l0.1,0.1h0.1l-0.1-0.5l0.2-0.2l0.2,0.1
		c0.2,0,0.5-0.1,0.9-0.3V13h-0.6l-0.5,0.1h-0.1c1-2.5,1.6-3.7,1.7-3.7h1.7l0.1,0.1v0.1l-0.1,0.1v0.1l0.6-0.1V9.5L170,9.4V9.4h1.1
		v0.2c-0.3,0-0.5,0.1-0.6,0.2v0.1l0.1,0.1l0.5-0.1v0.1l0.1,0.1v1.6l-0.1,0.1c-0.5,0-0.7,0.1-0.7,0.2v0.1l0.2,0.2
		c0.4,0,0.6,0.1,0.6,0.2v0.9c-0.4,0.1-0.6,0.1-0.6,0.2c0,0.1,0.2,0.2,0.6,0.3l-0.1,0.2l0.1,0.9v2.3c0,0.1-0.1,0.2-0.2,0.2v0.1
		c0.2,0,0.2,0,0.2,0.2v1.6l-0.1,0.1H171l-0.1-0.1h-0.1v0.1c0,0.1,0.1,0.2,0.4,0.3l-0.1,0.3v0.1l0.1,0.1l-0.1,0.3l0.1,0.7v1.9
		l-0.1,0.1l0.1,0.1V24l-0.1,0.1c0.1,0.4,0.2,0.6,0.4,0.6v-0.1l1,0.3v0.2l-1.2-0.2l-0.1,0.1l0.1,0.6v0.1c0,0.1-0.1,0.2-0.3,0.2
		l0.1,0.1l-0.1,0.4v0.1l0.2-0.1h0.1V27l-0.1,0.2h-0.3c-0.1,0-0.2-0.2-0.2-0.5l-0.8,0.3v0.1h0.1c0,0.2,0.1,0.3,0.2,0.3v0.1l-0.1,0.1
		v0.1l0.1-0.2l0.5,0.2c0-0.1,0.1-0.3,0.2-0.5h0.1l0.1,0.1l-0.2,0.2h0.2v-0.1h0.1l0.1,0.1l-0.3,0.6h0.2l0.1-0.1V28l0.1,0.1v0.3
		l-0.1,0.1l-0.2-0.1l-0.2,0.1v0.2h0.1l0.1-0.1l0.2,0.2V29h-0.2l-0.1-0.2l-0.5,0.3v0.2c0.2,0,0.4-0.1,0.5-0.4
		c0.2,0.1,0.4,0.2,0.4,0.3v1.4l-0.1,0.2h-0.6c-0.3,0-0.5-0.1-0.6-0.3h-0.1l-0.1,0.1c0,0.1,0,0.2-0.2,0.2H169l-0.1-0.2v-2
		c0-0.1,0.1-0.2,0.3-0.2v-0.1l-0.1-0.1c-0.1,0-0.2-0.1-0.2-0.2v-0.7l0.2-0.1c0-0.3,0.1-0.4,0.2-0.4v-0.2h-0.2
		c-0.2,0-0.3-0.3-0.3-0.8h0.1l0.1-0.1c0.4,0.5,0.7,0.8,0.8,0.8l0.2-0.1v-0.2l-0.2-0.2l-0.2,0.1l-0.2-0.1v-0.1l0.2-0.2
		c-0.1,0-0.2-0.1-0.2-0.1v-0.1h0.6v-0.1l-0.9-0.2v-0.2c0-0.2,0.2-0.2,0.6-0.2v-0.2l-0.2-0.1l-0.2,0.2h-0.1v-0.8l0.1-0.2l-0.1-0.4
		l0.1-0.5l1.3,0.1h0.1c0-0.1-0.1-0.2-0.5-0.2H169l-0.1-0.2v-1l0.1-0.1h0.1l-0.1-0.2v-0.2l0.2-0.1l0.6,0.5l0.2-0.1h0.1
		c0-0.1-0.1-0.3-0.3-0.6c-0.4-0.1-0.6-0.2-0.6-0.5c-0.3,0-0.4-0.1-0.4-0.1v-1.6l0.1-0.1l-0.1-0.1v-0.1c0.4,0.1,0.6,0.2,0.6,0.3
		l-0.2,0.2l0.2,0.1V19c0.3-0.1,0.5-0.3,0.5-0.4l0.5-0.1v-0.1c-0.4,0-0.7-0.1-1-0.4l-0.3,0.2H169l-0.1-0.1v-4L169,14l-0.1-0.2v-0.2
		l0.1-0.2l-0.1-0.2v-0.4c0-0.1,0.3-0.2,0.9-0.2l-0.1-0.1c0-0.2,0.2-0.2,0.6-0.2v-0.1l-0.1-0.1l-0.2,0.1l-0.6-0.2l-0.2,0.1l-0.4-0.2
		v-0.1l0.1-0.1l-0.2-0.1l0.2-0.2h-0.2v0.1c0,0.3-0.3,0.4-0.9,0.4c-0.1,0.3-0.2,0.5-0.3,0.5l0.3,0.7c0.3,0,0.6-0.1,0.8-0.3h0.1
		l0.1,0.1l-1.3,3l-0.4-0.1l-0.3,0.1h-0.3l-0.5-0.3l-0.2,0.2c0,0.1,0.1,0.2,0.4,0.2c0.1,0,0.4,0.2,0.9,0.7c-0.2,0.6-0.3,1-0.5,1
		c0,0.4-0.2,0.8-0.6,1.2h-0.4V19c0,0.3,0.1,0.4,0.2,0.5l-1,2.6v0.1c0.4,0,0.6,0.1,0.6,0.2v0.1h-0.2l-0.2-0.2
		c-0.5,0.1-0.7,0.4-0.7,0.8l0.6,0.2l-0.1,0.2h-0.2l-0.2-0.2c-0.1,0-0.3,0.3-0.4,0.9h-0.2v-1.3c0-0.1,0.1-0.2,0.2-0.2v-0.1h-0.1
		l-0.5-0.5l-0.2,0.5l0.2,0.2v-0.2h0.2v0.9h-0.2l-0.1-0.1c0,0.1-0.1,0.2-0.3,0.2v0.1c0,0.1,0.1,0.2,0.2,0.2l-0.1,0.3
		c0,0.1,0.1,0.2,0.2,0.2v0.4l-0.2,0.9h-0.2l-0.1-0.1v0.1l-0.1,0.1l0.1,0.2V26l-0.4-0.1v0.2c0.1,0,0.3,0.2,0.4,0.6v0.1h-0.2
		c-0.3,0.7-0.5,1.1-0.7,1.1v0.1l0.1,0.1V28h-0.2v-0.2h-0.1l-0.1,0.1c0,0.2-0.1,0.3-0.2,0.3v0.2c0.2,0,0.2,0,0.2,0.1v0.2
		c-0.1,0.2-0.3,0.5-0.4,1H161v-0.6h-0.1c0,0.4-0.1,0.6-0.4,0.6v0.1c0.2,0,0.2,0,0.2,0.2v0.6l-0.2,0.2h-1.4c-0.5-0.9-0.7-1.4-0.7-1.6
		l0.1-0.1l-0.4-0.5c-0.3-1-0.6-1.6-0.8-1.7v-0.2c0.2,0,0.2-0.1,0.2-0.2l-0.4-0.2c-0.3-0.8-0.6-1.3-0.8-1.3l0.1-0.2l-0.9-2.1
		l-0.2,0.1h-0.1L155,23v-0.1l0.2-0.2h0.1l0.1,0.1l-0.7-1.7h-0.1l-0.1,0.1l-0.2-0.2l0.2-0.2c0-0.2-0.3-1-1-2.4v-0.1l0.1-0.1
		c-0.5-0.7-0.8-1.3-0.8-1.7h0.6v-0.1c-0.3,0-0.5-0.1-0.5-0.1h-0.1l-0.1,0.1h-0.1l-0.6-1c-0.2-0.7-0.3-1.1-0.4-1.1l-1-2.1v2.4
		l-0.8,0.7v0.1h0.3l0.4-0.1v0.1l0.1,0.1v0.9c-0.3,0.1-0.5,0.2-0.5,0.3c0.3,0.1,0.5,0.2,0.5,0.3v1.5l0.1,0.4l-0.1,0.1v0.1l0.1,0.1
		l-0.1,0.2v0.1l0.1,0.1v0.1l-0.1,0.1l0.1,0.2v0.1l-0.1,0.1l0.1,0.2v0.1l-0.1,0.1v0.1l0.1,0.1v0.1l-0.1,0.1l0.1,0.2v0.1l-0.1,0.1v0.1
		l0.1,0.1v0.1l-0.1,0.1l-0.6-0.1h-0.1v0.1c0,0.1,0.3,0.2,0.6,0.2v3.9l0.1,0.6l-0.1,0.1l0.1,1.1v1.4l-0.2,0.2l-0.6-0.2L150,29v0.1
		c0.6,0,0.9,0.1,0.9,0.3v0.2l-0.1,0.3l0.1,0.3v0.5l-0.2,0.2l-1-0.3c0,0.2,0,0.3-0.1,0.3h-0.2c-0.6,0-0.9-0.1-0.9-0.2v-0.2l0.2-0.2
		l-0.2-0.2v-0.6l0.1-0.1l0.9,0.3h0.1c-0.2-0.4-0.6-0.7-1-1v-2.7l0.1-0.1l-0.1-0.1v-1.3l0.2-0.1l-0.2-0.2v-1.6l0.1-0.1l-0.1-0.1v-1.4
		l-0.1-0.4l0.1-0.1l-0.1-0.2v-0.1l0.1-0.1l-0.1-0.2h0.1l-0.1-0.3v-0.1l0.1-0.1l-0.1-0.2V19l0.1-0.1v-0.1l-0.1-0.1v-0.1l0.1-0.1
		l-0.1-0.2v-0.1l0.1-0.1l-0.1-0.2v-0.1l0.1-0.1v-0.1l-0.1-0.1l0.1-0.3v-7h0.3v-0.2c-0.2,0-0.3-0.1-0.3-0.2V9.5l0.2-0.2h2.2l0.4-0.1
		L151.6,9.4z M148.5,9.8L148.5,9.8l0.2,0.1V9.8H148.5z M148.7,17.3v0.2h0.1L148.7,17.3L148.7,17.3z M148.7,20L148.7,20l0.2,0.2h0.1
		V20H148.7z M148.9,22.5v0.2h0.2L148.9,22.5z M149,25.8h-0.2v0.1l0.2,0.2h0.2L149,25.8z M149.2,22l-0.2,0.2l0.1,0.3h0.2l0.4-0.4
		L149.2,22z M149.1,17.5v0.2c0.2-0.1,0.3-0.2,0.3-0.2H149.1z M149.1,28.5L149.1,28.5l0.2,0.1v-0.1H149.1z M149.5,21.1L149.5,21.1
		l0.2,0.1v-0.1H149.5z M149.7,27.9h-0.2V28h0.3L149.7,27.9z M149.7,24.3L149.7,24.3v0.2l0.2-0.1v-0.1L149.7,24.3z M149.8,9.8V10h0.2
		L149.8,9.8L149.8,9.8z M150.1,29.9h-0.2l0.2,0.3h0.2C150.2,30,150.1,29.9,150.1,29.9z M150.4,29.8L150.4,29.8l0.3,0.1v-0.1H150.4z
		 M150.4,25.2L150.4,25.2l0.2,0.1v-0.1H150.4z M150.6,10.2l0.2,0.2v-0.2H150.6z M152,17.8V18h-0.5l-0.2,0.3c-0.3,0-0.4-0.1-0.5-0.2
		v-0.1c0-0.1,0.2-0.2,0.4-0.3l0.2,0.1v-0.1C151.8,17.6,152,17.7,152,17.8z M151.2,12.7l0.2,0.1v-0.1H151.2z M151.3,9.9l0.1,0.2h0.1
		V9.8l-0.1-0.1L151.3,9.9z M151.6,7.2h-0.2l0.2-0.2V7.2z M151.6,23.3L151.6,23.3l-0.2-0.1L151.6,23.3L151.6,23.3z M152,18.2
		L152,18.2l-0.1,0.4c-0.1,0-0.2-0.1-0.2-0.2h-0.1l0.1-0.1h0.1v0.1L152,18.2L152,18.2z M151.9,18.2h-0.1v-0.1L151.9,18.2L151.9,18.2z
		 M151.9,19L151.9,19l-0.1-0.1l0.2-0.2L151.9,19z M152.4,24.5L152.4,24.5l-0.3,0.1l-0.3-0.4v-0.1l0.1-0.1h0.1L152.4,24.5z
		 M151.9,13.5v0.1h0.2L151.9,13.5z M152.1,14.7v0.2h0.1L152.1,14.7L152.1,14.7z M152.5,18.7L152.5,18.7l-0.1-0.2h0.1V18.7z
		 M153.1,19v0.2c-0.4-0.1-0.6-0.2-0.6-0.3v-0.1l0.2-0.2h0.1L153.1,19z M152.9,17.7L152.9,17.7l-0.2-0.1l0.1-0.2h0.1L152.9,17.7z
		 M153.1,17.8h-0.1v-0.1L153.1,17.8L153.1,17.8z M153.3,14.9L153.3,14.9l-0.1,0.2c0.1,0.3,0.3,0.4,0.6,0.4c0,0.1,0.1,0.2,0.2,0.2
		v-0.2L153.3,14.9z M153.4,24.7L153.4,24.7l0.1,0.2l-0.1,0.1h-0.1l-0.1-0.1v-0.1L153.4,24.7L153.4,24.7z M153.8,26.7l-0.1,0.2
		l-0.2-0.2v-0.2h0.1L153.8,26.7z M154.2,25.5L154.2,25.5l-0.5-0.3v-0.1h0.1C154,25.1,154.1,25.3,154.2,25.5z M154.3,21.4v0.2h-0.1
		l-0.2-0.2v-0.1l0.2-0.2L154.3,21.4z M154.6,18.8l-0.1,0.2c-0.3,0-0.5,0-0.5,0.1v0.1l0.3,0.1c0.2-0.2,0.4-0.2,0.6-0.2V19L154.6,18.8
		z M154.2,22L154.2,22l0.1,0.2l-0.1,0.1h-0.1l-0.1-0.1V22L154.2,22L154.2,22z M154.6,16.9L154.6,16.9L155,17v-0.2L154.6,16.9z
		 M154.8,33L154.8,33l-0.2,0.1v-0.2L154.8,33z M155.5,25.1L155.5,25.1L155.5,25.1c-0.3,0.1-0.5,0-0.6-0.2v-0.2h0.1
		C155.4,24.8,155.5,25,155.5,25.1z M155.7,24.9l-0.2-0.1v-0.1h0.2V24.9z M155.7,19.6l-0.1,0.2h0.1L155.7,19.6L155.7,19.6z
		 M155.7,26.2h-0.1v-0.1L155.7,26.2L155.7,26.2z M156.2,35.6L156.2,35.6L156.2,35.6l-0.3-0.2v-0.1l0.1-0.1L156.2,35.6z M156.4,26.9
		L156.4,26.9l-0.1,0.2l-0.2-0.2v-0.1l0.1-0.1L156.4,26.9z M156.1,21.9V22l0.6-0.1v-0.1H156.1z M156.4,31L156.4,31l-0.2,0.1l-0.1-0.1
		v-0.1l0.1-0.1L156.4,31z M156.5,10.6L156.5,10.6l0.1,0.1l-0.1,0.1h-0.1l-0.1-0.1v-0.1L156.5,10.6L156.5,10.6z M156.6,23.6l-0.2,0.2
		l0.4,0.1h0.2C157.1,23.7,156.9,23.6,156.6,23.6z M156.7,22.2l0.1,0.2h0.1l-0.1-0.1v-0.1l0.1-0.1H156.7z M157.9,31.8v0.4h-0.1
		c-0.3,0-0.4,0.1-0.4,0.4h-0.1l-0.1-0.1V33h-0.1c0-0.2,0-0.2-0.2-0.2l0.1-0.4l-0.1-0.3V32h0.3l-0.5-0.5v-0.1l0.3,0.1l0.4-0.1
		C157.6,31.4,157.8,31.6,157.9,31.8z M157.1,23.9L157.1,23.9l0.1,0.1v-0.1H157.1z M157.2,23.6L157.2,23.6l0.2,0.1v-0.1H157.2z
		 M157.3,26.4v0.1h0.1L157.3,26.4z M158.4,32.2L158.4,32.2l0.1,0.1l-0.1,0.1l-0.2-0.2v-0.1H158.4z M159.1,16.1L159.1,16.1l-0.1,0.3
		h-0.2l-0.2-0.2l0.2-0.1H159.1z M159.3,21.9l-0.3,0.2c-0.3,0-0.4-0.1-0.4-0.2v-0.2h0.5L159.3,21.9z M159.5,27.9L159.5,27.9l0.1,0.2
		h0.4C160,28,159.8,27.9,159.5,27.9z M161.2,21.5L161.2,21.5l-0.1,0.2l0.8,0.5v0.1l-0.1,0.1h-0.1l-0.1-0.1h-0.1l-0.4,0.1v-0.1
		c-0.3-0.1-0.5-0.2-0.5-0.3l0.1-0.2l-0.1-0.2l-0.1,0.1c-0.7-0.1-1-0.2-1-0.4l0.2-0.2h0.2C160.8,21.2,161.2,21.3,161.2,21.5z
		 M160.3,27.2c-0.1,0-0.2,0.2-0.2,0.6h0.1l0.1,0.1h0.1V27.2L160.3,27.2L160.3,27.2z M160.1,30.1L160.1,30.1l0.4,0.1v-0.1H160.1z
		 M160.7,23.1L160.7,23.1l-0.4,0.1l-0.2-0.1v-0.1l0.2-0.2h0.1L160.7,23.1z M160.4,22.3L160.4,22.3l-0.1-0.1h0.1V22.3z M161,14.8
		l-0.1,0.1h-0.2l-0.1-0.1l0.2-0.2L161,14.8L161,14.8z M160.8,23.8h-0.2v-0.1L160.8,23.8L160.8,23.8z M161.1,19.8V20h-0.2l-0.1-0.1
		l0.1-0.2L161.1,19.8z M160.9,26.6l-0.1,0.2l0.1,0.5v0.2l-0.1,0.2l0.1,0.3l-0.1,0.3h0.3v-0.1l-0.1-0.1L160.9,26.6L160.9,26.6z
		 M160.7,28.6v0.2h0.1L160.7,28.6z M161,26.3L161,26.3l0.2,0.1v-0.1H161z M161.4,25L161.4,25l0.2,0.1V25H161.4z M161.5,30.2
		c0.4,0.2,0.6,0.4,0.6,0.5v0.1l-0.1,0.1c-0.2-0.1-0.3-0.3-0.3-0.4l-0.1,0.1l-0.2-0.2v-0.1l0.2-0.1V30.2z M161.8,35.5v0.2h-0.1
		l-0.1-0.2v-0.1L161.8,35.5z M162.1,21.7L162.1,21.7l-0.2,0.2l-0.2-0.2l0.2-0.2h0.1L162.1,21.7z M161.8,24.9h-0.2
		c0,0.2,0.2,0.3,0.7,0.4V25L161.8,24.9z M162.2,23.5v0.1h0.1L162.2,23.5L162.2,23.5z M162.2,23v0.1h0.1L162.2,23L162.2,23z
		 M162.3,23.8l-0.1,0.3h0.1l0.1,0.1L162.3,23.8L162.3,23.8z M162.3,24.5v0.1h0.1L162.3,24.5L162.3,24.5z M162.9,30.3h-0.2v-0.2h0.2
		V30.3z M163.8,15.4L163.8,15.4c0,0.2-0.2,0.3-0.5,0.3l-0.2-0.1l0.2-0.2h0.1L163.8,15.4z M163.1,22.7v0.2h0.1L163.1,22.7L163.1,22.7
		z M163.4,21.7l0.1,0.2h0.1v-0.2H163.4z M163.9,27L163.9,27l-0.1,0.2l-0.3-0.2v-0.1l0.1-0.1L163.9,27z M163.7,24.4L163.7,24.4
		l-0.1,0.2h-0.1l-0.1-0.1L163.7,24.4L163.7,24.4z M163.8,26.6h-0.1l-0.2-0.2l0.2-0.1h0.2L163.8,26.6z M163.8,21.5l0.2,0.2v-0.2
		H163.8z M164.3,30.8L164.3,30.8l-0.2,0.1l-0.1-0.1l0.2-0.2L164.3,30.8z M164.8,29.5L164.8,29.5c-0.5,0-0.7-0.1-0.7-0.2V29
		C164.4,29,164.7,29.2,164.8,29.5z M164.6,22.7L164.6,22.7l-0.1,0.2h-0.1l-0.1-0.1L164.6,22.7L164.6,22.7z M165.6,24.6L165.6,24.6
		h-0.2l-0.4,0.1c-0.2,0-0.4-0.1-0.5-0.3l0.1-0.2h0.1C165.3,24.3,165.6,24.4,165.6,24.6z M164.5,19.6L164.5,19.6l0.3,0.1v-0.1H164.5z
		 M165.2,26.8L165.2,26.8L165.2,26.8l-0.3-0.1v-0.1l0.1-0.1L165.2,26.8z M165.4,29.7v0.2h-0.1l-0.2-0.2v-0.1L165.4,29.7z
		 M165.2,17.6l0.2,0.2v-0.2H165.2z M165.5,17L165.5,17l0.1,0.2c0.2,0,0.2,0,0.2,0.1l-0.2,0.3v0.2h0.5l0.3-0.4c0-0.2-0.1-0.4-0.4-0.7
		C165.7,16.7,165.6,16.8,165.5,17z M165.8,25.4L165.8,25.4l0.1,0.1l-0.1,0.1h-0.1l-0.1-0.1v-0.1L165.8,25.4L165.8,25.4z M165.8,22.7
		L165.8,22.7l-0.1-0.2h0.1V22.7z M167.2,14.4L167.2,14.4l-0.9,0.1l-0.4,0.1v0.1l0.2,0.1c0.4-0.2,0.8-0.2,1.2-0.2v-0.1L167.2,14.4
		L167.2,14.4z M165.9,18.2v0.1h0.1L165.9,18.2L165.9,18.2z M166.3,24.1l-0.2,0.2l-0.2-0.2v-0.2h0.1L166.3,24.1z M166.2,25.9
		L166.2,25.9l-0.1-0.2h0.1V25.9z M166.3,28.4L166.3,28.4l-0.2,0.1v-0.2L166.3,28.4z M167.6,24.5L167.6,24.5l-0.1,0.2l-0.1-0.1v-0.1
		H167.6z M167.5,29.7L167.5,29.7l-0.1-0.1h0.1V29.7z M167.5,11.3v0.2h0.2L167.5,11.3z M167.5,14.2L167.5,14.2l0.2,0.1v-0.1H167.5z
		 M167.6,13.8l0.1,0.2v-0.2H167.6z M168.6,12.5l-0.2,0.2h-0.2v-0.2H168.6L168.6,12.5z M168.6,29.5L168.6,29.5l-0.2,0.1l-0.1-0.1
		l0.2-0.2L168.6,29.5z M168.6,23.9h-0.2l-0.1-0.1l0.1-0.1h0.1V23.9z M168.7,9.8v0.1h0.2V9.8H168.7z M169.5,10.4l-0.5,0.1v0.4
		l0.2,0.1c0.4,0,0.8-0.1,1-0.2l0.5,0.1l0.2-0.2v-0.1L169.5,10.4z M169,28L169,28l0.2-0.1v-0.1L169,28z M169.3,13.5l-0.2,0.1v0.1
		l0.4,0.1l0.2-0.2v-0.1L169.3,13.5z M169.1,23.1v0.2h0.2L169.1,23.1z M169.2,29.4L169.2,29.4l0.1,0.4h0.2l-0.2-0.6L169.2,29.4z
		 M169.3,11.4v0.2h0.4v-0.2H169.3z M169.4,20.1L169.4,20.1l-0.1,0.2l0.2,0.1v-0.2L169.4,20.1z M169.3,28.3v0.2h0.2L169.3,28.3z
		 M169.4,23.9v0.2h0.1L169.4,23.9z M169.8,17h-0.2l0.2,0.2h0.2L169.8,17z M169.6,28.4L169.6,28.4l0.2,0.1v-0.1H169.6z M169.8,12.8
		l-0.1,0.2V13h0.5v-0.2L169.8,12.8z M169.7,19.2v0.2h0.1L169.7,19.2L169.7,19.2z M169.7,27.4v0.1h0.1L169.7,27.4L169.7,27.4z
		 M169.8,27.9h-0.1V28l0.5,0.4C170.1,28.1,170,28,169.8,27.9z M169.8,29.6l-0.1,0.1h0.1L169.8,29.6L169.8,29.6z M170,17.7h-0.2V18
		l0.2,0.1l0.2-0.1L170,17.7z M169.9,25.4L169.9,25.4l-0.1,0.1l0.1,0.1h0.1l0.1-0.1v-0.1L169.9,25.4L169.9,25.4z M170,14.2l0.1,0.2
		l0.2-0.1v-0.1H170z M170.1,11.4h0.2v-0.2L170.1,11.4z M170.1,16.2L170.1,16.2l0.2,0.2v-0.2H170.1z M170.3,25.8h-0.2
		c0.1,0.3,0.1,0.5,0.2,0.5c0-0.1,0.1-0.2,0.2-0.2C170.5,25.9,170.4,25.8,170.3,25.8z M170.1,25.1l0.2,0.2h0.1l-0.1-0.2H170.1z
		 M170.4,29.6h-0.1v0.1l0.3,0.3h0.1C170.6,29.8,170.5,29.6,170.4,29.6z M170.3,12.5v0.2h0.2v-0.1L170.3,12.5z M170.5,24.3
		L170.5,24.3L170.5,24.3l0.2,0.3v-0.1L170.5,24.3z M170.7,29.6L170.7,29.6l0.2,0.1v-0.1H170.7z M170.9,10.1L170.9,10.1l0.2,0.1v-0.1
		H170.9z M173.1,23.4L173.1,23.4l-0.1,0.2c-0.5-0.1-0.8-0.1-0.8-0.2l0.2-0.2h0.1L173.1,23.4z M173.9,23.6h-0.2l-0.1-0.1l0.2-0.2h0.1
		V23.6z M174.2,26.9L174.2,26.9l0.1,0.2l-0.1,0.1L174,27v-0.1H174.2z M176.2,24.8L176.2,24.8l-0.1-0.2h0.1V24.8z M180,22.2v0.2
		l-0.9-0.2v-0.1l0.1-0.1L180,22.2z M180.3,19.7c0,0.1-0.2,0.2-0.6,0.2l-0.4-0.1v-0.2l0.2-0.1h0.2L180.3,19.7z M180.7,29.5l-0.1,0.1
		l-0.2-0.1l-0.3,0.1l-0.3-0.2l0.1-0.2C180.4,29.3,180.7,29.4,180.7,29.5z M181.1,19.7L181.1,19.7h-0.5v-0.2h0.5V19.7z M183,31.9
		c0.6,0.3,1,0.5,1.2,0.5v0.1l-0.1,0.1c-0.4-0.1-0.6-0.1-0.6-0.2l-0.2,0.1c-0.4-0.1-0.6-0.3-0.6-0.4v-0.1l0.1-0.1L183,31.9z"/>
	<path class="st0" d="M186.5,9.3L186.5,9.3l-3.7,7.7c-0.6,0-0.9,0.1-0.9,0.4l0.6,0.2l-2.8,5.8v2.4l-0.1,0.1l0.1,0.1v0.7l-0.1,0.2
		l0.1,0.2v2.3c-0.5,0.1-0.7,0.1-0.7,0.2l0.1,0.2c0.4,0,0.6,0.1,0.6,0.2v0.6l-0.1,0.1l-0.4-0.1l-0.7,0.1h-1.1l-0.2-0.2v-1.8
		c0-0.1,0.1-0.1,0.3-0.1v-0.1l-0.2-0.3v-0.1h0.2V28c-0.1,0-0.2-0.1-0.2-0.2v-1.3l-0.1-0.6l0.1-0.3l-0.1-0.4l0.5-0.2v-0.1l-0.1-0.1
		l0.2,0.1l0.3-0.3h0.1l0.1,0.1h1v-0.1c0-0.1-0.1-0.2-0.5-0.2c0-0.3-0.4-0.5-1.3-0.6l-0.1,0.2l-0.2-0.2l0.1-0.4v-0.1
		c0-0.5-0.1-0.7-0.3-0.7h-0.1l0.1-0.2c-0.2-0.4-0.3-0.6-0.4-0.6l-1-2c0-0.2,0.1-0.2,0.2-0.2v-0.2h-0.3c-0.1-0.1-0.8-1.4-2.1-4
		c0-0.2,0.1-0.3,0.2-0.3l-0.2-0.2h-0.1l-0.1,0.1h-0.1l-1.9-3.6c0.4-0.4,0.6-0.6,0.6-0.7v-0.1h-0.6l-0.2,0.2
		c-0.5-0.7-0.7-1.1-0.7-1.4V9.3h2.6c1.9,3.8,3,6.3,3.4,7.5l-0.5,0.1h-0.2c0,0.3,0.1,0.4,0.2,0.5h0.2l0.1-0.1l0.1,0.4
		c0.5,0,0.8,0.2,0.8,0.6l1.1,2.3h0.2l2-3.9c0-0.2,0.3-0.3,0.8-0.3c0.4-0.3,0.9-0.6,1.4-0.8v-0.1l-0.2-0.1l-1.2,0.3
		c0,0.2,0,0.3-0.2,0.3h-0.3c2-4.4,3.1-6.6,3.2-6.6H186.5z M172.9,13.3L172.9,13.3l0.1,0.2c0.2,0,0.3-0.1,0.4-0.3l-0.1-0.1
		C173.1,13.1,172.9,13.2,172.9,13.3z M174.6,13.5h-0.1c-0.4,0-0.6,0.1-0.6,0.2v0.1L174,14h0.1l0.7-0.4L174.6,13.5z M175.1,16.6
		l-0.4,0.1v0.1h0.2L175.1,16.6L175.1,16.6z M174.8,16.3v0.1l0.1-0.1H174.8z M175,18c0,0.1,0.2,0.2,0.6,0.3l0.4-0.4
		c-0.2,0-0.3-0.1-0.3-0.1L175,18z M176.3,22.8h-0.2v-0.1L176.3,22.8L176.3,22.8z M176.6,22.4h-0.2v-0.1L176.6,22.4L176.6,22.4z
		 M176.6,23.2h-0.2v-0.1L176.6,23.2L176.6,23.2z M176.6,24.7h-0.2v-0.1L176.6,24.7L176.6,24.7z M176.6,20.9V21h0.3v-0.1H176.6z
		 M177,23.6L177,23.6l-0.1-0.1h0.1V23.6z M176.9,24.4v-0.2h0.1L176.9,24.4z M177,25.1L177,25.1l-0.1-0.1h0.1V25.1z M177,25.9
		L177,25.9l-0.1-0.2h0.1V25.9z M177.3,21.8l-0.1,0.2l0.2,0.1c0.2,0,0.3-0.1,0.3-0.2v-0.1H177.3z M178.4,23L178.4,23
		c-0.3,0-0.5,0.1-0.6,0.2l-0.4-0.1h-0.1c0.4,0.3,0.7,0.5,0.9,0.5c0.3-0.2,0.5-0.3,0.5-0.4v-0.2L178.4,23z M177.4,19.7L177.4,19.7
		l0.1,0.1v-0.1H177.4z M177.4,22.8h0.2v-0.1l-0.1-0.1L177.4,22.8z M177.8,29.8h-0.2c0.1,0.3,0.1,0.4,0.2,0.4c0-0.1,0.1-0.2,0.1-0.2
		L177.8,29.8z M177.9,26.7L177.9,26.7l0.2,0.1v-0.1H177.9z M178.1,29.1h-0.2l0.2,0.1h0.2v-0.1L178.1,29.1z M178.1,25.7v0.2h0.2v-0.2
		H178.1z M178.2,26.9L178.2,26.9l-0.1,0.2h0.2L178.2,26.9z M178.2,22.1v0.2l0.4-0.1v-0.1H178.2z M178.5,27.5h-0.3v0.1l0.2,0.2h0.3
		v-0.1L178.5,27.5z M178.5,20.6v0.1h0.1L178.5,20.6L178.5,20.6z M178.8,19.5L178.8,19.5l-0.1-0.1h0.1V19.5z M179.2,23l-0.4,0.1
		l0.2,0.2l0.4-0.1L179.2,23z M179.9,20.3L179.9,20.3l0.1,0.1v-0.1H179.9z M179.9,18.3v0.2h0.3v-0.2l-0.1-0.1L179.9,18.3z
		 M180.8,18.3v0.2h0.1L180.8,18.3z M183.6,12.9c-0.6,0.1-0.9,0.2-0.9,0.4v0.2l0.4,0.2c0.6-0.2,1-0.4,1.1-0.6v-0.1H183.6z"/>
</g>
</svg>
